<?xml version="1.0" encoding="utf-8"?>
<svg viewBox="-2.185 186.527 502.684 103.604" width="502.684" height="103.604" xmlns="http://www.w3.org/2000/svg">
  <path fill="#382336" opacity="1.000000" stroke="none" d="M 409.305 189.435 C 409.56 189.639 409.833 189.98 410.11 190.453 C 409.853 190.251 409.587 189.911 409.305 189.435 Z" style="" transform="matrix(0, 1, -1, 0, 599.651489, -219.763504)"/>
  <path fill="#382336" opacity="1.000000" stroke="none" d="M 411.327 188.316 C 411.404 188.276 411.51 188.348 411.633 188.542 C 411.558 188.573 411.46 188.496 411.327 188.316 Z" style="" transform="matrix(0, 1, -1, 0, 599.907043, -223.052994)"/>
  <path fill="#382336" opacity="1.000000" stroke="none" d="M 413.97 186.561 C 413.97 186.545 414.076 186.546 414.048 186.573 C 414.024 186.599 413.97 186.578 413.97 186.561 Z" style="" transform="matrix(0, 1, -1, 0, 600.579224, -227.443466)"/>
  <path fill="#FE003B" opacity="1.000000" stroke="none" d="M 416.012 194.953 C 416.072 195.072 416.134 195.34 416.103 195.648 C 416.012 195.49 416.012 195.296 416.012 194.953 Z" style="" transform="matrix(0, 1, -1, 0, 611.362122, -220.761108)"/>
  <path fill="#272636" opacity="1.000000" stroke="none" d="M 151.644 249.402 C 150.866 249.681 150.086 249.959 148.935 250.236 C 146.35 250.258 144.142 250.279 141.937 250.298 C 141.739 250.275 141.539 250.252 141.198 250.262 C 138.783 250.258 136.516 250.187 134.248 250.187 C 114.907 250.187 95.571 250.199 76.232 250.209 C 75.389 250.209 74.544 250.209 73.7 250.209 C 73.656 250.391 73.609 250.573 73.564 250.756 C 76.922 252.247 80.269 253.762 83.635 255.23 C 101.612 263.07 119.593 270.899 137.573 278.728 C 141.666 280.509 145.749 282.31 149.873 284.018 C 151.142 284.545 151.583 285.282 151.574 286.658 C 151.517 296.547 151.517 306.437 151.562 316.325 C 151.568 317.686 151.161 318.363 149.848 318.93 C 129.3 327.818 108.775 336.759 88.259 345.721 C 81.1 348.849 73.982 352.073 66.84 355.241 C 66.193 355.529 65.507 355.727 64.577 356.06 C 64.577 353.906 64.577 352.016 64.577 350.125 C 64.577 342.214 64.657 334.299 64.521 326.391 C 64.49 324.544 65.259 323.834 66.732 323.206 C 77.622 318.548 88.497 313.853 99.37 309.154 C 105.13 306.668 110.878 304.151 117.16 301.413 C 104.122 295.801 91.576 290.4 78.875 284.986 C 74.793 283.242 70.893 281.45 66.931 279.798 C 65.193 279.076 64.49 278.153 64.518 276.112 C 64.654 265.881 64.573 255.65 64.577 245.212 C 64.583 243.226 64.568 241.445 64.582 239.664 C 64.606 236.853 64.647 234.036 64.622 231.08 C 64.566 227.763 64.566 224.588 64.566 221.314 C 66.251 221.185 67.678 221.08 69.471 220.924 C 72.177 220.905 74.522 220.935 77.071 220.957 C 79.962 220.98 82.645 221.011 85.432 221.099 C 85.921 221.153 86.305 221.153 86.69 221.153 C 86.706 221.055 86.723 220.957 86.738 220.857 C 86.222 220.712 85.706 220.567 85.028 220.407 C 82.502 219.384 80.137 218.377 77.707 217.234 C 76.016 215.692 74.389 214.288 72.761 212.882 C 70.974 210.222 68.945 207.69 67.449 204.874 C 65.288 200.798 64.707 196.279 64.707 191.685 C 64.71 183.345 64.673 175.008 64.751 166.302 C 64.891 164.483 64.987 163.029 64.962 161.577 C 64.851 154.728 64.726 147.878 64.556 141.031 C 64.514 139.418 65.001 138.48 66.973 138.643 C 73.913 138.628 80.648 138.604 87.52 138.664 C 88.619 138.707 89.57 138.664 90.715 138.637 C 93.085 138.361 93.753 139.255 93.693 141.472 C 93.533 147.371 93.64 153.28 93.615 159.324 C 93.608 159.851 93.626 160.233 93.647 160.617 C 93.762 160.616 93.877 160.611 93.996 160.609 C 93.996 160.152 93.996 159.695 94.004 159.066 C 95.014 155.824 96.015 152.749 97.15 149.6 C 100.01 146.489 102.732 143.454 105.596 140.361 C 109.028 137.906 112.666 136.304 116.674 135.575 C 116.667 135.575 116.65 135.572 116.853 135.584 C 120.814 135.575 124.575 135.553 128.335 135.528 C 142.276 138.792 151.242 149.547 151.44 163.997 C 151.681 181.561 151.517 199.133 151.521 216.701 C 151.523 217.06 151.454 217.416 151.396 217.962 C 141.83 217.962 132.304 217.962 122.623 217.962 C 122.623 211.38 122.623 204.889 122.623 198.397 C 119.613 209.226 112.938 216.623 102.491 220.921 C 118.725 220.921 134.959 220.921 151.57 220.921 C 151.57 228.562 151.57 235.922 151.604 243.486 C 151.619 245.171 151.595 246.65 151.578 248.475 C 151.603 249.014 151.624 249.208 151.644 249.402 M 90.044 183.942 C 90.044 170.132 90.044 156.322 90.044 142.276 C 83.057 142.276 76.339 142.251 69.625 142.337 C 69.232 142.343 68.512 143.24 68.511 143.724 C 68.476 157.265 68.519 170.807 68.482 184.756 C 68.479 187.608 68.409 190.462 68.484 193.313 C 68.847 206.991 79.243 217.483 92.893 217.99 C 105.269 218.451 116.536 209.666 118.366 197.456 C 119.182 192.013 118.697 186.379 118.896 180.43 C 118.914 175.16 118.817 169.883 119.027 164.621 C 119.078 163.35 119.831 161.706 120.814 160.958 C 123.099 159.217 126.035 161.171 126.099 164.374 C 126.204 169.567 126.199 174.763 126.166 180.362 C 126.152 191.042 126.165 201.719 126.097 212.394 C 126.088 213.967 126.659 214.385 128.142 214.367 C 134.067 214.305 139.99 214.348 145.913 214.331 C 146.465 214.329 147.016 214.184 147.614 214.101 C 147.614 202.607 147.614 191.28 147.683 179.548 C 147.68 173.989 147.831 168.42 147.606 162.866 C 147.497 160.204 147.036 157.431 146.102 154.945 C 142.086 144.254 131.952 137.979 120.332 138.704 C 109.884 139.356 100.016 147.301 98.186 158.106 C 96.932 165.512 97.59 173.243 97.298 181.234 C 97.284 184.82 97.294 188.408 97.239 191.994 C 97.196 194.863 95.957 196.329 93.695 196.328 C 91.456 196.326 90.119 194.77 90.067 192.034 C 90.017 189.472 90.013 186.912 90.044 183.942 M 123.279 326.362 C 130.804 323.114 138.313 319.831 145.864 316.649 C 147.314 316.035 147.77 315.208 147.74 313.676 C 147.646 308.847 147.702 304.013 147.702 299.181 C 147.702 297.021 147.702 294.862 147.702 292.455 C 146.694 292.84 146.016 293.07 145.36 293.354 C 120.25 304.236 95.146 315.131 70.022 325.975 C 68.806 326.501 68.41 327.153 68.42 328.432 C 68.473 335.093 68.438 341.753 68.447 348.418 C 68.45 348.89 68.569 349.363 68.671 350.117 C 86.906 342.183 104.938 334.337 123.279 326.362 M 84.572 246.296 C 105.559 246.296 126.545 246.296 147.702 246.296 C 147.702 239.566 147.635 233.2 147.746 226.839 C 147.779 224.984 147.036 224.668 145.43 224.686 C 139.428 224.753 133.42 224.712 127.414 224.712 C 108.665 224.712 89.913 224.755 71.164 224.657 C 68.869 224.643 68.343 225.337 68.401 227.502 C 68.548 232.917 68.444 238.341 68.453 243.759 C 68.455 244.537 68.535 245.313 68.592 246.296 C 73.91 246.296 79.02 246.296 84.572 246.296 M 106.599 292.887 C 110.892 294.759 115.203 296.588 119.466 298.526 C 121.093 299.266 122.525 299.374 124.233 298.611 C 131.312 295.443 138.458 292.433 145.556 289.307 C 146.338 288.962 146.957 288.241 147.654 287.697 C 146.977 287.212 146.366 286.585 145.62 286.259 C 123.095 276.427 100.553 266.626 78.013 256.823 C 74.95 255.489 71.875 254.189 68.455 252.724 C 68.455 253.889 68.455 254.67 68.455 255.45 C 68.452 261.526 68.554 267.603 68.391 273.674 C 68.337 275.725 69.074 276.589 70.873 277.361 C 82.71 282.424 94.491 287.609 106.599 292.887 Z" style="" transform="matrix(0, 1, -1, 0, 353.874573, 137.713409)"/>
  <path fill="#4C1F3A" opacity="1.000000" stroke="none" d="M 160.74 196.581 C 160.686 196.415 160.705 196.152 160.793 195.841 C 160.849 196.023 160.828 196.252 160.74 196.581 Z" style="" transform="matrix(0, 1, -1, 0, 356.977966, 35.444035)"/>
  <path fill="#4C1F3A" opacity="1.000000" stroke="none" d="M 162.489 197.042 C 162.436 196.871 162.461 196.605 162.565 196.294 C 162.618 196.482 162.59 196.714 162.489 197.042 Z" style="" transform="matrix(0, 1, -1, 0, 359.194702, 34.141335)"/>
  <path fill="#4C1F3A" opacity="1.000000" stroke="none" d="M 165.995 197.946 C 165.945 197.77 165.976 197.501 166.088 197.189 C 166.14 197.382 166.108 197.617 165.995 197.946 Z" style="" transform="matrix(0, 1, -1, 0, 363.609528, 31.52548)"/>
  <path fill="#272733" opacity="1.000000" stroke="none" d="M 328.628 224.584 C 328.555 220.913 328.55 217.385 328.515 213.653 C 328.503 212.838 328.525 212.226 328.515 211.433 C 328.484 208.925 328.484 206.602 328.484 204.077 C 336.242 204.077 343.782 204.077 351.723 204.145 C 355.036 204.357 357.942 204.606 360.847 204.626 C 368.935 204.683 377.028 204.662 385.117 204.628 C 386.042 204.626 386.965 204.365 387.887 204.224 C 396.739 204.424 403.698 208.362 409.239 215.066 C 413.26 219.93 415.332 225.605 415.387 231.839 C 415.48 241.851 415.627 251.889 415.044 261.875 C 414.323 274.196 403.307 285.542 391.05 286.716 C 383.941 287.399 376.739 287.096 369.578 287.232 C 368.483 287.253 367.386 287.269 365.954 287.193 C 365.141 287.017 364.665 286.935 363.976 286.853 C 360.378 286.853 356.985 286.853 353.419 286.894 C 351.722 287.082 350.2 287.232 348.48 287.356 C 341.726 287.267 335.169 287.206 328.614 287.143 C 328.641 278.359 328.725 269.573 328.653 260.791 C 328.635 258.806 329.161 257.882 331.411 258.246 C 332.85 258.245 334.106 258.23 335.573 258.193 C 336.482 258.193 337.176 258.214 338.124 258.317 C 338.62 258.365 338.865 258.334 339.313 258.294 C 341.856 258.173 344.196 258.066 346.745 257.962 C 358.513 258.002 370.073 258.053 381.632 258.072 C 385.423 258.081 386.446 257.035 386.46 253.227 C 386.477 248.107 386.474 242.984 386.46 237.864 C 386.449 234.353 385.252 233.176 381.664 233.179 C 365.715 233.186 349.764 233.207 333.814 233.227 C 328.239 233.186 328.515 233.878 328.559 227.734 C 328.568 226.729 328.648 225.728 328.628 224.584 M 404.208 276.141 C 412.767 268.157 411.982 257.853 411.509 247.361 C 406.26 247.361 401.22 247.361 396.182 247.361 C 390.132 247.361 390.132 247.361 390.097 253.391 C 390.066 259.219 387.471 261.801 381.619 261.803 C 366.168 261.807 350.72 261.804 335.271 261.806 C 334.413 261.806 333.553 261.806 332.602 261.806 C 332.602 269.099 332.602 276.144 332.602 283.268 C 333.345 283.316 333.918 283.387 334.492 283.387 C 351.846 283.391 369.197 283.363 386.548 283.404 C 393.348 283.418 399.123 281.06 404.208 276.141 M 403.053 243.787 C 405.876 243.787 408.699 243.787 411.68 243.787 C 411.68 240.123 411.701 236.836 411.677 233.548 C 411.559 218.392 400.896 207.775 385.694 207.743 C 368.779 207.708 351.862 207.734 334.95 207.738 C 334.171 207.74 333.395 207.81 332.569 207.852 C 332.569 215.073 332.569 222.063 332.569 229.295 C 333.572 229.295 334.431 229.295 335.291 229.295 C 350.887 229.295 366.483 229.286 382.079 229.303 C 387.021 229.307 389.99 232.25 390.095 237.18 C 390.129 238.72 390.186 240.262 390.086 241.793 C 389.987 243.306 390.514 243.857 392.071 243.816 C 395.584 243.721 399.099 243.787 403.053 243.787 Z" style="" transform="matrix(0, 1, -1, 0, 617.695862, -126.26284)"/>
  <path fill="#3C223D" opacity="1.000000" stroke="none" d="M 359.512 212.206 C 359.694 212.24 359.781 212.329 359.922 212.491 C 359.741 212.595 359.497 212.625 359.174 212.602 C 359.186 212.435 359.293 212.338 359.512 212.206 Z" style="" transform="matrix(0, 1, -1, 0, 571.955627, -147.140381)"/>
  <path fill="#4C1F3A" opacity="1.000000" stroke="none" d="M 283.222 195.489 C 283.37 195.625 283.47 195.843 283.563 196.184 C 283.428 196.062 283.301 195.816 283.222 195.489 Z" style="" transform="matrix(0, 1, -1, 0, 479.228973, -87.555969)"/>
  <path fill="#4C1F3A" opacity="1.000000" stroke="none" d="M 284.939 195.015 C 285.094 195.14 285.209 195.346 285.322 195.676 C 285.18 195.565 285.04 195.331 284.939 195.015 Z" style="" transform="matrix(0, 1, -1, 0, 480.475983, -89.784988)"/>
  <path fill="#282635" opacity="1.000000" stroke="none" d="M 236.937 204.822 C 239.068 202.448 240.956 199.96 243.326 198.074 C 245.694 196.19 248.561 194.94 251.167 193.346 C 251.76 192.982 252.186 192.343 252.695 191.673 C 254.223 191.37 255.745 191.219 257.532 191.173 C 261.134 191.352 264.469 191.433 267.805 191.48 C 267.938 191.482 268.074 191.16 268.209 190.989 C 268.687 191.072 269.164 191.153 269.769 191.306 C 271.619 191.93 273.363 192.425 275.059 193.049 C 282.148 195.657 287.505 200.306 291.25 207.308 C 300.607 200.887 309.83 194.555 319.358 188.018 C 319.44 189.064 319.533 189.681 319.533 190.301 C 319.541 200.626 319.505 210.948 319.568 221.271 C 319.575 222.79 319.069 223.608 317.76 224.376 C 306.905 230.736 296.092 237.178 285.268 243.599 C 284.539 244.033 283.822 244.492 283.191 245.353 C 283.95 245.389 284.705 245.453 285.463 245.453 C 296.007 245.439 306.55 245.461 317.093 245.355 C 318.989 245.337 319.585 245.81 319.578 247.786 C 319.498 265.357 319.505 282.927 319.569 300.499 C 319.575 302.326 319.058 302.874 317.229 302.844 C 310.421 302.734 303.61 302.782 296.396 302.72 C 292.741 302.654 289.492 302.598 286.246 302.664 C 285.707 302.675 285.182 303.226 284.65 303.529 C 284.65 303.529 284.668 303.531 284.646 303.332 C 281.09 303.041 277.554 302.945 273.808 302.811 C 271.332 302.771 269.067 302.765 266.6 302.74 C 263.82 302.72 261.238 302.72 258.444 302.696 C 257.228 302.695 256.224 302.72 255.027 302.734 C 248.185 302.727 241.537 302.727 234.887 302.729 C 233.074 302.811 232.531 301.885 232.543 300.162 C 232.601 291.418 232.559 282.671 232.595 273.925 C 232.601 271.608 232.758 269.29 232.776 266.812 C 232.713 251.134 232.582 235.607 232.825 220.09 C 232.886 216.212 234.154 212.352 234.888 208.302 C 235.576 207.073 236.241 206.021 236.937 204.822 M 265.207 230.16 C 265.211 227.631 265.276 225.105 265.195 222.58 C 265.131 220.57 264.418 220.163 262.162 221.008 C 261.996 221.771 261.691 222.536 261.685 223.301 C 261.646 230.006 261.656 236.713 261.666 243.418 C 261.666 244.05 261.778 244.68 261.833 245.263 C 265.211 245.774 265.225 245.774 265.214 242.594 C 265.196 238.586 265.157 234.578 265.207 230.16 M 275.579 245.035 C 278.78 243.15 281.996 241.285 285.182 239.371 C 293.927 234.124 302.661 228.855 311.692 223.529 C 314.857 222.424 315.989 220.383 315.8 216.893 C 315.46 210.544 315.711 204.163 315.702 197.798 C 315.7 197.053 315.623 196.308 315.565 195.204 C 306.682 201.248 298.178 207.035 289.567 212.898 C 289.246 212.212 288.997 211.771 288.827 211.303 C 286.95 206.169 283.567 202.252 279.111 199.18 C 273.571 195.366 267.323 194.773 260.847 194.996 C 249.106 195.403 238.714 203.845 237.05 215.467 C 236.095 222.14 236.666 229.029 236.483 236.232 C 236.472 246.852 236.523 257.471 236.403 268.086 C 236.378 270.255 237.056 270.747 239.129 270.744 C 263.732 270.674 288.339 270.7 312.944 270.693 C 313.794 270.693 314.641 270.602 315.551 270.55 C 315.551 263.333 315.551 256.346 315.551 249.089 C 305.904 249.089 296.404 249.089 286.905 249.089 C 277.352 249.089 267.802 249.089 257.989 249.089 C 257.989 244.437 257.989 240.129 258.042 235.416 C 258.049 231.026 257.996 226.635 258.083 222.246 C 258.159 218.289 261.518 215.753 265.071 216.903 C 267.825 217.795 268.778 219.999 268.996 223.047 C 269.02 230.09 269.042 237.134 268.999 244.569 C 268.999 245.86 268.999 247.146 268.999 249.031 C 271.391 247.534 273.338 246.317 275.579 245.035 M 236.453 283.521 C 236.453 288.608 236.453 293.697 236.453 298.818 C 263.06 298.818 289.285 298.818 315.706 298.818 C 315.706 292.557 315.706 286.492 315.704 280.426 C 315.703 277.433 315.7 277.425 312.738 277.425 C 289.17 277.423 265.601 277.425 242.032 277.425 C 236.451 277.425 236.451 277.425 236.453 283.521 Z" style="" transform="matrix(0, 1, -1, 0, 521.833923, -30.286949)"/>
  <path fill="#292633" opacity="1.000000" stroke="none" d="M 437.207 288.847 C 428.906 287.433 422.915 282.644 418.32 275.857 C 416.075 272.543 414.847 268.835 414.257 264.729 C 414.114 263.482 413.977 262.388 413.977 261.293 C 413.957 243.639 413.951 225.985 413.948 208.33 C 413.948 207.753 414.007 207.177 414.046 206.453 C 414.662 206.385 415.224 206.264 415.782 206.264 C 424.205 206.285 432.629 206.36 441.053 206.317 C 442.778 206.308 443.328 206.821 443.293 208.571 C 443.187 213.903 443.252 219.238 443.617 224.681 C 443.945 223.807 444.268 222.93 444.606 222.061 C 448.704 211.549 456.096 205.035 467.374 203.108 C 484.144 200.243 497.98 212.677 500.238 225.987 C 500.591 228.072 500.834 230.207 500.841 232.319 C 500.9 249.533 500.893 266.749 500.895 283.964 C 500.897 284.534 500.821 285.106 500.768 285.826 C 491.183 285.826 481.694 285.826 472.027 285.826 C 472.027 279.18 472.027 272.621 472.027 265.916 C 470.587 269.22 469.537 272.516 467.815 275.408 C 464.223 281.437 459.084 285.801 452.318 288.024 C 451.304 288.355 450.203 288.422 448.848 288.708 C 444.771 288.818 440.989 288.833 437.207 288.847 M 439.409 249.742 C 439.409 236.603 439.409 223.465 439.409 210.289 C 432.087 210.289 425.04 210.289 418.022 210.289 C 417.932 210.677 417.842 210.887 417.842 211.098 C 417.86 224.115 417.887 237.133 417.837 250.559 C 417.831 253.923 417.822 257.288 417.822 260.65 C 417.822 267.241 420.015 272.98 424.591 277.743 C 431.815 285.264 440.65 287.614 450.473 284.629 C 459.957 281.747 466.186 275.082 467.711 265.212 C 468.651 259.136 468.067 252.825 468.26 246.22 C 468.271 244.908 468.287 243.598 468.297 242.284 C 468.315 238.787 468.26 235.286 468.372 231.792 C 468.436 229.826 469.525 228.456 471.559 228.234 C 473.373 228.035 474.677 228.942 475.206 230.693 C 475.452 231.51 475.468 232.417 475.484 233.283 C 475.547 236.561 475.568 239.837 475.519 243.522 C 475.513 255.745 475.527 267.97 475.47 280.194 C 475.462 281.741 475.982 282.217 477.497 282.2 C 483.426 282.134 489.356 282.179 495.287 282.162 C 495.834 282.16 496.384 282.012 496.979 281.926 C 496.979 268.724 496.979 255.702 497.044 242.275 C 497.041 238.393 497.123 234.509 497.017 230.63 C 496.687 218.416 487.301 208.22 475.079 206.707 C 462.678 205.179 451.009 212.736 447.732 224.559 C 445.722 231.815 446.794 239.251 446.651 247.02 C 446.637 251.114 446.634 255.208 446.608 259.302 C 446.586 262.484 445.386 264.093 443.067 264.104 C 440.76 264.113 439.458 262.413 439.433 259.358 C 439.406 256.289 439.383 253.219 439.409 249.742 Z" style="" transform="matrix(0, 1, -1, 0, 703.191467, -211.651566)"/>
  <path fill="#FE0041" opacity="1.000000" stroke="none" d="M 104.595 290.089 C 104.459 289.909 104.439 289.714 104.449 289.373 C 104.737 289.336 104.995 289.446 105.253 289.553 C 105.072 289.726 104.891 289.899 104.595 290.089 Z" style="" transform="matrix(0, 1, -1, 0, 394.57724, 184.877411)"/>
  <path fill="#8101F1" opacity="1.000000" stroke="none" d="M 47.634 250.936 C 29.447 258.847 11.415 266.692 -6.821 274.626 C -6.923 273.872 -7.042 273.398 -7.044 272.925 C -7.054 266.263 -7.018 259.602 -7.071 252.94 C -7.081 251.662 -6.686 251.009 -5.47 250.485 C 19.653 239.64 44.758 228.745 69.867 217.863 C 70.524 217.58 71.204 217.349 72.211 216.963 C 72.211 219.37 72.211 221.53 72.211 223.689 C 72.211 228.52 72.155 233.356 72.248 238.185 C 72.278 239.716 71.822 240.543 70.373 241.156 C 62.822 244.339 55.312 247.622 47.634 250.936 Z" style="" transform="matrix(0, 1, -1, 0, 278.383606, 213.205414)"/>
  <path fill="#9801D1" opacity="1.000000" stroke="none" d="M 94.68 256.607 C 89.347 256.607 84.237 256.607 78.918 256.607 C 78.861 255.622 78.782 254.846 78.78 254.068 C 78.77 248.65 78.876 243.227 78.729 237.811 C 78.671 235.646 79.198 234.952 81.492 234.966 C 100.24 235.066 118.992 235.021 137.74 235.021 C 143.747 235.023 149.754 235.062 155.759 234.995 C 157.363 234.978 158.106 235.295 158.074 237.149 C 157.962 243.51 158.031 249.875 158.031 256.607 C 136.871 256.607 115.886 256.607 94.68 256.607 Z" style="" transform="matrix(0, 1, -1, 0, 364.18631, 127.386459)"/>
  <path fill="#AB01B4" opacity="1.000000" stroke="none" d="M 197.823 280.486 C 197.783 275.291 197.788 270.096 197.683 264.903 C 197.62 261.699 194.682 259.745 192.398 261.485 C 191.415 262.235 190.661 263.88 190.611 265.15 C 190.4 270.413 190.497 275.689 190.244 281.16 C 182.999 281.362 175.986 281.361 168.976 281.359 C 169.174 273.772 168.516 266.041 169.771 258.635 C 171.598 247.83 181.468 239.886 191.917 239.234 C 203.537 238.508 213.669 244.782 217.686 255.474 C 218.619 257.96 219.08 260.732 219.19 263.396 C 219.415 268.948 219.263 274.517 219.027 280.281 C 211.801 280.486 204.812 280.486 197.823 280.486 Z" style="" transform="matrix(0, 1, -1, 0, 454.406097, 66.130424)"/>
  <path fill="#8C01E1" opacity="1.000000" stroke="none" d="M 76.372 262.628 C 64.418 257.417 52.633 252.229 40.797 247.167 C 38.999 246.397 38.262 245.53 38.317 243.48 C 38.479 237.41 38.377 231.333 38.38 225.257 C 38.38 224.475 38.38 223.696 38.38 222.53 C 41.799 223.995 44.876 225.296 47.938 226.628 C 70.48 236.431 93.02 246.234 115.546 256.065 C 116.292 256.39 116.903 257.017 117.578 257.502 C 116.882 258.048 116.262 258.768 115.48 259.114 C 108.383 262.238 101.236 265.248 94.159 268.416 C 92.45 269.181 91.019 269.071 89.391 268.332 C 85.127 266.395 80.817 264.566 76.372 262.628 Z" style="" transform="matrix(0, 1, -1, 0, 323.681244, 167.789078)"/>
  <path fill="#A201C4" opacity="1.000000" stroke="none" d="M 158.155 212.971 C 165.213 212.769 172.224 212.772 179.423 212.772 C 179.508 218.317 179.993 223.952 179.176 229.394 C 177.347 241.605 166.079 250.389 153.705 249.929 C 140.053 249.42 129.657 238.929 129.295 225.25 C 129.219 222.399 129.289 219.546 129.529 216.49 C 136.779 216.285 143.789 216.285 150.799 216.289 C 150.824 218.85 150.827 221.411 150.878 223.972 C 150.93 226.708 152.266 228.264 154.507 228.266 C 156.767 228.268 158.007 226.799 158.049 223.932 C 158.105 220.346 158.094 216.758 158.155 212.971 Z" style="" transform="matrix(0, 1, -1, 0, 385.813599, 76.904671)"/>
  <path fill="#AB01B7" opacity="1.000000" stroke="none" d="M 201.31 237.823 C 194.272 238.025 187.259 238.025 180.046 238.025 C 179.811 224.483 179.77 210.942 179.802 197.399 C 179.804 196.916 180.523 196.017 180.916 196.014 C 187.631 195.926 194.349 195.951 201.335 195.951 C 201.335 209.998 201.335 223.807 201.31 237.823 Z" style="" transform="matrix(0, 1, -1, 0, 407.550079, 26.422617)"/>
  <path fill="#A201C4" opacity="1.000000" stroke="none" d="M 146.061 257.566 C 153.087 257.363 160.077 257.363 167.269 257.363 C 167.471 268.686 167.471 280.012 167.471 291.508 C 166.874 291.591 166.323 291.736 165.774 291.736 C 159.848 291.755 153.925 291.711 148 291.774 C 146.518 291.791 145.945 291.372 145.955 289.802 C 146.023 279.126 146.013 268.447 146.061 257.566 Z" style="" transform="matrix(0, 1, -1, 0, 431.281708, 117.855789)"/>
  <path fill="#4C1F3A" opacity="1.000000" stroke="none" d="M 132.463 223.928 C 132.334 223.768 132.312 223.664 132.255 223.406 C 132.734 223.397 133.251 223.542 133.767 223.686 C 133.753 223.786 133.736 223.885 133.721 223.985 C 133.336 223.985 132.951 223.985 132.463 223.928 Z" style="" transform="matrix(0, 1, -1, 0, 356.706299, 90.684288)"/>
  <path fill="#4C1F3A" opacity="1.000000" stroke="none" d="M 193.775 230.93 C 193.802 230.791 193.979 230.806 194.067 230.825 C 194.155 231.302 194.155 231.761 194.155 232.217 C 194.039 232.22 193.921 232.224 193.806 232.225 C 193.787 231.842 193.767 231.458 193.775 230.93 Z" style="" transform="matrix(0, 1, -1, 0, 425.483002, 37.554852)"/>
  <path fill="#D6007A" opacity="1.000000" stroke="none" d="M 384.223 256.79 C 379.25 261.601 373.475 263.962 366.675 263.944 C 349.324 263.904 331.972 263.934 314.618 263.93 C 314.044 263.93 313.472 263.858 312.73 263.809 C 312.73 256.686 312.73 249.642 312.73 242.347 C 313.68 242.347 314.539 242.347 315.398 242.347 C 330.844 242.345 346.295 242.348 361.745 242.344 C 367.598 242.344 370.192 239.762 370.223 233.933 C 370.258 227.901 370.258 227.901 376.308 227.901 C 381.348 227.901 386.386 227.901 391.635 227.901 C 392.109 238.394 392.895 248.697 384.223 256.79 Z" style="" transform="matrix(0, 1, -1, 0, 598.23584, -106.390709)"/>
  <path fill="#E30068" opacity="1.000000" stroke="none" d="M 422.628 263.881 C 418.895 263.881 415.378 263.816 411.866 263.911 C 410.31 263.953 409.781 263.4 409.879 261.888 C 409.979 260.357 409.923 258.814 409.89 257.275 C 409.784 252.344 406.816 249.401 401.875 249.398 C 386.278 249.381 370.681 249.391 355.087 249.391 C 354.226 249.391 353.368 249.391 352.363 249.391 C 352.363 242.158 352.363 235.168 352.363 227.946 C 353.191 227.905 353.966 227.835 354.745 227.833 C 371.658 227.826 388.573 227.803 405.489 227.838 C 420.692 227.87 431.356 238.487 431.47 253.643 C 431.498 256.931 431.476 260.217 431.476 263.881 C 428.494 263.881 425.67 263.881 422.628 263.881 Z" style="" transform="matrix(0, 1, -1, 0, 637.789795, -146.057495)"/>
  <path fill="#3C223D" opacity="1.000000" stroke="none" d="M 335.732 232.334 C 335.808 232.502 335.67 232.823 335.538 232.822 C 332.203 232.775 328.868 232.695 325.44 232.476 C 328.741 232.334 332.132 232.334 335.732 232.334 Z" style="" transform="matrix(0, 1, -1, 0, 563.174866, -98.018875)"/>
  <path fill="#C0009A" opacity="1.000000" stroke="none" d="M 250.561 228.231 C 250.561 232.535 250.561 236.843 250.561 241.494 C 260.374 241.494 269.925 241.494 279.476 241.494 C 288.975 241.494 298.475 241.494 308.124 241.494 C 308.124 248.753 308.124 255.738 308.124 262.955 C 307.214 263.007 306.366 263.099 305.516 263.099 C 280.91 263.107 256.305 263.08 231.699 263.149 C 229.629 263.154 228.95 262.66 228.975 260.492 C 229.094 249.877 229.044 239.257 229.292 228.434 C 236.541 228.231 243.551 228.231 250.561 228.231 Z" style="" transform="matrix(0, 1, -1, 0, 514.239197, -22.859192)"/>
  <path fill="#CB0089" opacity="1.000000" stroke="none" d="M 288.297 266.106 C 281.26 266.31 274.25 266.31 267.035 266.31 C 266.946 259.516 266.375 252.626 267.331 245.952 C 268.994 234.33 279.387 225.888 291.128 225.482 C 297.603 225.258 303.85 225.851 309.391 229.667 C 313.849 232.738 317.232 236.653 319.107 241.788 C 319.278 242.258 319.527 242.698 319.847 243.383 C 328.46 237.52 336.963 231.733 345.845 225.689 C 345.905 226.792 345.98 227.539 345.98 228.283 C 345.99 234.65 345.74 241.03 346.081 247.378 C 346.269 250.868 345.137 252.908 341.663 253.973 C 339.78 253.664 338.214 253.168 336.645 253.16 C 324.21 253.098 311.779 253.125 299.347 253.123 C 299.06 250.485 298.105 248.28 295.351 247.39 C 291.798 246.239 288.44 248.773 288.364 252.732 C 288.278 257.118 288.33 261.51 288.297 266.106 Z" style="" transform="matrix(0, 1, -1, 0, 552.318176, -60.567402)"/>
  <path fill="#B701A5" opacity="1.000000" stroke="none" d="M 194.084 240.974 C 194.082 235.098 194.082 235.098 199.665 235.098 C 223.232 235.098 246.802 235.095 270.37 235.098 C 273.331 235.098 273.334 235.105 273.335 238.098 C 273.338 244.164 273.337 250.229 273.337 256.49 C 246.916 256.49 220.691 256.49 194.084 256.49 C 194.084 251.369 194.084 246.28 194.084 240.974 Z" style="" transform="matrix(0, 1, -1, 0, 479.503876, 12.082757)"/>
  <path fill="#C60090" opacity="1.000000" stroke="none" d="M 266.914 248.871 C 279.382 248.667 291.814 248.642 304.249 248.704 C 305.817 248.712 307.384 249.208 309.118 249.551 C 300.544 254.884 291.811 260.152 283.066 265.399 C 279.879 267.313 276.666 269.176 273.16 271.017 C 270.889 270.717 268.92 270.461 266.951 270.206 C 266.926 263.163 266.903 256.116 266.914 248.871 Z" style="" transform="matrix(0, 1, -1, 0, 547.860168, -28.169037)"/>
  <path fill="#C0009A" opacity="1.000000" stroke="none" d="M 272.102 239.449 C 274.103 239.506 276.073 239.763 278.195 240.094 C 276.405 241.391 274.459 242.608 272.067 244.106 C 272.067 242.221 272.067 240.934 272.102 239.449 Z" style="" transform="matrix(0, 1, -1, 0, 516.908508, -33.353512)"/>
  <path fill="#F90049" opacity="1.000000" stroke="none" d="M 480.449 276.682 C 480.412 273.404 480.39 270.129 480.326 266.849 C 480.31 265.982 480.295 265.076 480.049 264.26 C 479.52 262.508 478.218 261.601 476.403 261.799 C 474.369 262.024 473.279 263.393 473.215 265.359 C 473.102 268.852 473.158 272.353 473.14 275.852 C 473.131 277.163 473.114 278.475 472.869 279.99 C 465.623 280.192 458.609 280.187 451.597 280.184 C 451.636 272.817 450.564 265.381 452.575 258.126 C 455.852 246.301 467.522 238.743 479.922 240.274 C 492.143 241.787 501.53 251.982 501.86 264.198 C 501.968 268.076 501.883 271.961 501.68 276.087 C 500.384 276.451 499.299 276.667 498.214 276.671 C 492.293 276.702 486.37 276.684 480.449 276.682 Z" style="" transform="matrix(0, 1, -1, 0, 736.757751, -216.495361)"/>
  <path fill="#ED0058" opacity="1.000000" stroke="none" d="M 440.61 211.944 C 447.673 211.745 454.687 211.748 461.887 211.748 C 461.974 217.949 462.559 224.26 461.618 230.337 C 460.093 240.207 453.864 246.872 444.38 249.755 C 434.558 252.738 425.723 250.389 418.498 242.868 C 413.923 238.104 411.73 232.365 411.73 225.775 C 411.73 222.412 411.739 219.048 411.988 215.48 C 419.241 215.277 426.253 215.277 433.266 215.273 C 433.289 218.344 433.314 221.414 433.34 224.483 C 433.366 227.537 434.668 229.237 436.973 229.228 C 439.295 229.218 440.493 227.609 440.515 224.426 C 440.541 220.334 440.544 216.238 440.61 211.944 Z" style="" transform="matrix(0, 1, -1, 0, 668.317261, -205.559113)"/>
  <path fill="#F8004C" opacity="1.000000" stroke="none" d="M 483.727 236.699 C 476.693 236.906 469.679 236.907 462.464 236.907 C 462.232 223.887 462.207 210.869 462.187 197.851 C 462.187 197.64 462.278 197.431 462.367 197.042 C 469.387 197.042 476.432 197.042 483.755 197.042 C 483.755 210.217 483.755 223.356 483.727 236.699 Z" style="" transform="matrix(0, 1, -1, 0, 689.945496, -255.996475)"/>
  <path fill="#EF0056" opacity="1.000000" stroke="none" d="M 430.069 255.432 C 436.034 255.23 441.956 255.249 447.879 255.217 C 448.962 255.212 450.05 254.997 451.312 254.834 C 451.487 267.815 451.487 280.836 451.487 294.039 C 450.891 294.125 450.343 294.272 449.794 294.273 C 443.864 294.291 437.934 294.245 432.005 294.312 C 430.49 294.33 429.97 293.854 429.977 292.305 C 430.036 280.081 430.021 267.858 430.069 255.432 Z" style="" transform="matrix(0, 1, -1, 0, 715.305176, -166.158707)"/>
</svg>