<svg width="256" height="256" xmlns="http://www.w3.org/2000/svg" xml:space="preserve" enable-background="new 0 0 256 256" version="1.1">

 <g>
  <title>Layer 1</title>
  <ellipse ry="102.61627" rx="101.30813" id="svg_61" cy="129.8488" cx="127.95927" fill="#0157D8"/>
  <path id="svg_3" d="m99.41666,257c-0.75999,-0.64652 -0.98185,-1.73505 -1.46627,-1.86816c-3.27161,-0.89907 -6.59882,-1.59583 -9.95215,-2.3682c2.11084,-5.83644 2.36109,-5.86543 18.52196,-2.16667c-0.88186,1.98323 -1.68703,3.79402 -2.5062,6.00392c-1.40289,0.39911 -2.79178,0.39911 -4.59734,0.39911z" fill="#A2A2A2"/>
  <path id="svg_4" d="m148.53206,1c0.77547,4.02867 -0.12738,6.95193 -5.05487,7.03198c-9.49237,0.15421 -12.2003,-1.1005 -12.47716,-6.60334c5.688,-0.42864 11.37605,-0.42864 17.53203,-0.42864z" fill="#A2A2A2"/>
  <path id="svg_5" d="m124.53314,1c0.79511,4.24054 -0.30374,7.05702 -5.38859,7.04962c-9.42118,-0.0137 -9.85523,-0.15278 -10.14452,-6.62709c5.02206,-0.42253 10.04415,-0.42253 15.53311,-0.42253z" fill="#A2A2A2"/>
  <path id="svg_6" d="m154.41666,257c-1.05661,-9.56279 1.39764,-9.65086 13.00824,-8.6843c0.66719,4.20133 -0.5351,5.59861 -5.5889,6.70574c-0.97246,0.21304 -1.87036,0.76636 -2.81934,1.57063c-1.40554,0.40793 -2.79445,0.40793 -4.6,0.40793z" fill="#A2A2A2"/>
  <path id="svg_7" d="m131.46794,257c-0.46794,-1.49222 -0.46794,-2.98445 -0.46794,-4.73824c5.94392,0 11.70895,0 17.99992,0c0,1.32319 0,2.58617 0.00005,4.29369c-5.688,0.44455 -11.37605,0.44455 -17.53203,0.44455z" fill="#A2A2A2"/>
  <path id="svg_8" d="m109.46686,257c-0.56187,-3.31277 1.25076,-4.87685 4.36253,-4.97292c3.56804,-0.11012 7.14208,-0.02552 11.17053,-0.02552c0,1.60963 0,2.85978 0.00003,4.55416c-5.02204,0.44428 -10.04413,0.44428 -15.53309,0.44428z" fill="#A2A2A2"/>
  <path id="svg_12" d="m26.05114,206.7885c-0.60043,-1.20574 -1.05544,-2.55705 -1.73801,-2.6839c-3.644,-0.67717 -4.69033,-2.88179 -4.16243,-6.58357c1.04936,-0.27106 2.36786,-0.3456 3.40364,-0.92531c4.44999,-2.49048 5.56566,-2.06738 7.51736,2.53677c0.6133,1.44679 2.08598,2.5105 3.04963,3.83379c0.71877,0.98703 2.02998,2.64453 1.73159,3.07881c-1.26133,1.83582 -2.86484,3.57785 -4.72007,4.76559c-0.46797,0.29961 -2.33322,-1.57289 -3.5492,-2.45707c-0.50698,-0.36865 -0.9953,-0.763 -1.53251,-1.56511z" fill="#A2A2A2"/>
  <path id="svg_13" d="m22.03337,184.00501c2.19857,3.56127 0.27577,5.88722 -2.53783,6.81211c-2.9426,0.9673 -5.68954,-0.0317 -6.53104,-3.76071c-0.46284,-2.05107 -1.79854,-4.00264 -1.86214,-6.02667c-0.14632,-4.65665 2.02728,-6.17381 7.16137,-5.74814c1.14095,2.9203 2.25252,5.76543 3.76964,8.72341z" fill="#A2A2A2"/>
  <path id="svg_14" d="m241.75137,190.94253c-6.65356,-0.16424 -8.48133,-3.72805 -5.24264,-9.26624c0.75168,-1.28539 1.66167,-2.58156 1.99023,-3.99129c0.92411,-3.96524 4.45105,-3.51238 5.86312,-2.09429c1.53903,1.5456 2.13258,4.95549 1.70962,7.2943c-0.50882,2.81366 -2.5235,5.35496 -4.32033,8.05752z" fill="#A2A2A2"/>
  <path id="svg_15" d="m210.56592,224.75104c-3.73418,-3.06754 -3.95774,-3.3675 -0.31868,-6.07956c3.10071,-2.31087 4.48857,-7.43004 9.54091,-6.57208c1.80229,0.30606 3.41224,1.74495 5.10998,2.66674c-0.74312,1.28287 -1.19355,2.95201 -2.28316,3.77762c-3.55055,2.69032 -5.69102,8.11946 -12.04905,6.20728z" fill="#A2A2A2"/>
  <path id="svg_16" d="m81.09412,9.00038c6.4723,-0.25376 2.88031,4.13996 3.76617,5.99558c-2.92216,1.49337 -5.45123,2.83355 -8.02132,4.08978c-6.19847,3.02974 -7.89859,1.88097 -7.72423,-5.59707c3.73674,-1.45366 7.63725,-2.97102 11.97938,-4.48829z" fill="#A2A2A2"/>
  <path id="svg_17" d="m20.00657,60.30346c2.34973,-3.52675 4.69784,-6.63123 7.48045,-10.31015c1.12347,0.06726 3.24764,-0.26136 5.01717,0.38337c6.00469,2.18784 1.06177,5.4203 0.22696,7.81679c-1.2453,3.57485 -8.30037,6.02163 -11.89795,4.58688c-0.47385,-0.18898 -0.56165,-1.34596 -0.82663,-2.47689z" fill="#A2A2A2"/>
  <path id="svg_18" d="m178.39307,18.58011c-0.90293,-1.05651 -1.37604,-2.06323 -2.16648,-2.5161c-1.75302,-1.00436 -3.66523,-1.73085 -5.82978,-2.71485c2.4886,-3.99217 4.57965,-5.6968 8.72824,-3.29c2.83751,1.64617 6.30801,2.20124 9.66767,3.30043c0,1.66089 0,3.27648 0,4.92516c-3.21749,2.171 -6.59375,2.54774 -10.39965,0.29536z" fill="#A2A2A2"/>
  <path id="svg_19" d="m235.01123,71.06609c2.30884,-0.96543 4.74179,-2.1605 6.86084,-1.74696c1.29236,0.25221 2.36484,2.8752 3.06606,4.62199c1.06094,2.64291 1.71218,5.45027 2.56851,8.29048c-7.8655,1.6235 -12.27178,-2.43606 -12.49541,-11.16551z" fill="#A2A2A2"/>
  <path id="svg_20" d="m60.36167,239.59636c-3.50732,-2.36929 -6.73561,-4.44751 -10.91223,-7.13622c0.9241,-1.53648 1.64855,-4.23844 3.26496,-4.97029c1.37368,-0.6219 3.87007,0.83325 5.70213,1.71685c3.07816,1.48458 6.02327,3.24505 9.97296,5.40921c-2.45243,1.66839 -5.10062,3.46995 -8.02782,4.98045z" fill="#A2A2A2"/>
  <path id="svg_22" d="m105.59413,7.61554c-5.57545,3.13444 -11.08958,4.89587 -17.1587,4.25528c-0.46956,-4.62658 1.75843,-7.37315 6.89505,-8.82109c5.06331,-1.42728 8.90954,0.12704 10.26365,4.56581z" fill="#A2A2A2"/>
  <path id="svg_23" d="m14.65661,70.58008c2.40402,-0.20295 4.81128,-0.68924 6.62393,0.13389c4.79136,2.17579 -1.74133,3.93689 -0.61985,6.57157c0.47359,1.11259 -1.58684,3.3038 -2.76014,5.50024c-1.57737,0 -3.86267,0 -6.41653,0c-1.60848,-4.52866 0.23268,-8.3021 3.17259,-12.2057z" fill="#A2A2A2"/>
  <path id="svg_24" d="m194.54105,232.72881c2.68281,-2.80475 4.35113,-6.67672 8.81294,-5.63584c1.64279,0.38324 3.1996,1.65221 4.42178,2.88715c0.24604,0.24858 -0.95563,2.45437 -1.90851,3.26665c-2.86535,2.44247 -5.93744,4.64244 -8.84802,6.87498c-4.75766,-3.17178 -4.78632,-3.25049 -2.47819,-7.39294z" fill="#A2A2A2"/>
  <path id="svg_25" d="m173.00781,246.25461c0.93321,-3.48801 5.06557,-3.34517 5.80268,-4.56099c2.83718,-4.67974 6.5509,-1.74469 9.70851,-2.83191c0.75593,6.21278 -2.32317,10.08755 -8.30936,9.94759c-2.28421,-0.05341 -6.13132,2.79246 -7.20183,-2.55469z" fill="#A2A2A2"/>
  <path id="svg_26" d="m47.56377,224.56888c-6.45556,2.1156 -8.7926,-3.25389 -12.19425,-6.31861c-0.53453,-0.48159 0.48197,-3.54756 1.55619,-4.68983c0.92579,-0.98439 3.86374,-1.74443 4.35,-1.20239c3.06392,3.41551 8.38329,5.77702 6.28806,12.21083z" fill="#A2A2A2"/>
  <path id="svg_27" d="m229.08572,195.96967c5.33112,-1.36194 5.33112,-1.36194 9.06032,2.26757c-3.06772,4.63341 -4.33803,11.49147 -12.88772,9.4032c-0.55803,-3.34723 -0.76458,-6.50374 2.79522,-8.73982c0.60706,-0.38132 0.65879,-1.64671 1.03218,-2.93095z" fill="#A2A2A2"/>
  <path id="svg_28" d="m247.17139,142.93247c0.63908,-3.22999 0.85832,-6.31403 1.0962,-9.66016c2.13195,0 4.1767,0 6.48076,0c0,5.1589 0,10.20488 0,15.23845c-5.69226,0.7285 -8.8647,-1.46425 -7.57696,-5.57829z" fill="#A2A2A2"/>
  <path id="svg_29" d="m160.99149,10.96295c-1.57673,-0.60794 -3.01979,-0.84695 -4.47237,-0.94461c-1.29712,-0.08721 -2.60471,-0.01833 -3.85498,-0.01833c-1.42986,-7.90153 0.44348,-8.41254 15.18686,-4.36506c0,1.90205 0,3.84036 0,6.49342c-2.37015,-0.25885 -4.55007,-0.49691 -6.85951,-1.16542z" fill="#A2A2A2"/>
  <path id="svg_30" d="m59.25977,29.49678c-3.07829,0.87427 -5.93136,1.39067 -8.5884,1.87158c-2.19708,-5.33002 2.22307,-6.63541 4.115,-9.13993c0.802,-1.06169 2.54613,-1.44624 3.90228,-2.04793c3.32891,-1.47695 6.30751,1.6488 6.03201,6.01188c-1.84435,1.03796 -3.54,1.99224 -5.46089,3.3044z" fill="#A2A2A2"/>
  <path id="svg_31" d="m77.92316,239.98801c0.73188,0.95306 1.32489,1.7904 2.06407,1.94976c3.9902,0.86026 4.94655,2.0555 4.84183,6.68337c-6.07553,1.27309 -11.41028,0.09021 -16.00551,-4.60068c1.75677,-4.32648 4.33875,-6.47854 9.09961,-4.03245z" fill="#A2A2A2"/>
  <path id="svg_32" d="m46.46262,40.26901c-2.86795,3.82674 -5.6039,7.0348 -10.76177,5.46952c-0.81087,-3.42776 2.85279,-11.60864 6.14409,-12.46191c1.40156,-0.36336 3.8557,0.60459 4.74344,1.78549c0.82351,1.09545 0.19755,3.28055 -0.12576,5.2069z" fill="#A2A2A2"/>
  <path id="svg_33" d="m6.9662,148.99789c-2.76345,0.27196 -4.18675,-0.16392 -4.02291,-3.06529c0.23095,-4.08987 0.05845,-8.20251 0.05845,-12.61558c2.33146,0 4.37191,0 6.98538,0c0,4.53471 0.10968,9.106 -0.1142,13.6609c-0.03495,0.71121 -1.58895,1.34775 -2.90672,2.01997z" fill="#A2A2A2"/>
  <path id="svg_34" d="m4.17709,111.08177c2.0804,-0.06042 3.69788,-0.06042 5.27048,-0.06042c1.3062,11.33837 1.2331,17.29232 -6.7081,15.51571c0.31908,-5.03984 0.64689,-10.21735 1.43762,-15.45529z" fill="#A2A2A2"/>
  <path id="svg_35" d="m251.33594,102.42045c-4.15883,2.40405 -6.81049,1.2791 -7.33595,-2.64786c-0.40545,-3.03004 -0.86384,-6.05299 -1.34499,-9.40134c2.16946,0 4.88104,0 7.44307,0c0.91774,3.4087 1.90965,6.95527 2.76482,10.5345c0.06724,0.28147 -0.8176,0.79042 -1.52695,1.5147z" fill="#A2A2A2"/>
  <path id="svg_37" d="m8.92953,156.00174c1.21876,0.185 2.57428,0.22592 2.65895,0.57506c1.01612,4.19005 1.84388,8.42578 2.81237,13.09041c-2.65649,0 -4.70564,0 -7.42398,0c-0.63401,-3.40026 -1.32852,-6.99234 -1.96754,-10.59426c-0.50686,-2.85702 1.15401,-3.3526 3.9202,-3.07121z" fill="#A2A2A2"/>
  <path id="svg_38" d="m5.00997,101.80551c0.63345,-4.21539 1.27423,-7.97299 1.89651,-11.62209c2.72036,0 4.64885,0 7.50749,0c-0.99336,4.65923 -1.90895,8.95371 -3.06315,14.36731c-2.13114,-0.76969 -4.23233,-1.52855 -6.34085,-2.74522z" fill="#A2A2A2"/>
  <path id="svg_39" d="m255,117.99993c0,2.43584 0,4.39443 0,6.67484c-2.31633,0 -4.35568,0 -6.06795,0c-0.96493,-2.95023 -2.52594,-5.80947 -2.60258,-8.70797c-0.04282,-1.61916 2.13746,-3.63623 3.78276,-4.83145c0.95991,-0.69732 2.84068,-0.12701 4.88777,-0.12701c0,2.32815 0,4.42124 0,6.99159z" fill="#A2A2A2"/>
  <path id="svg_41" d="m244.00076,161.27341c1.31906,-5.3691 1.82312,-5.63234 9.11927,-4.82912c-0.90065,3.70947 -1.78757,7.3623 -2.74816,11.31865c-1.83171,0 -3.88173,0 -6.37167,0c0,-2.1526 0,-4.0943 0.00056,-6.48953z" fill="#A2A2A2"/>
  <path id="svg_51" d="m159.09078,65.04c1.74818,-0.56534 3.46511,-1.28227 5.25384,-1.65079c1.59614,-0.32884 3.43819,-0.77682 4.88328,-0.29932c6.32683,2.09054 13.04857,4.06889 16.76624,10.07582c2.92256,4.72219 5.81798,9.93835 6.75749,15.28113c1.00928,5.73955 -3.07214,10.82755 -6.58036,15.15458c-3.02566,3.73182 -6.82621,7.47035 -11.10024,9.3647c-3.7758,1.67351 -8.67781,0.80605 -13.59761,0.64878c-0.86,-1.0837 -1.02733,-2.06687 -1.57683,-2.38046c-7.16141,-4.08723 -12.63269,-9.33859 -13.01668,-18.66875c0.02173,-3.15669 -0.03149,-5.86653 -0.01867,-8.96927c1.66842,-3.45171 3.01796,-6.68154 4.9404,-9.52387c2.15986,-3.19337 4.83702,-6.03685 7.28914,-9.03255z" fill="#000000"/>
  <path id="svg_52" d="m175.82269,167.00011c0,9.45431 0,18.4086 0,27.7325c-4.3253,0 -8.24515,0 -12.73881,0c0,-17.21599 0,-34.58834 0,-52.61844c-7.25426,0 -13.9758,0 -20.96056,0c0,-3.23276 0,-5.8058 0,-8.96796c5.07942,0 10.02518,-0.00002 14.97092,0.00001c11.48857,0.0001 22.97752,0.05259 34.46544,-0.03454c3.07913,-0.02335 5.03711,0.45518 5.10577,4.26747c0.07311,4.05733 -1.94188,4.68088 -5.28581,4.57037c-4.96317,-0.164 -9.93575,-0.04246 -15.55695,-0.04246c0,8.41313 0,16.50308 0,25.09305z" fill="#F1F6FD"/>
  <path id="svg_53" d="m102.64381,191.73433c-7.24075,6.58035 -15.80075,5.79863 -24.18023,5.11589c-5.92356,-0.48265 -6.74681,-2.21756 -5.68544,-10.04468c1.69475,0.30788 3.40096,0.48636 5.03261,0.93561c10.5065,2.89276 16.30457,0.28816 16.86909,-11.01981c0.62234,-12.46637 0.19064,-24.98538 0.21681,-37.48146c0.00379,-1.81019 0.00052,-3.6204 0.00052,-5.75889c4.25736,0 8.17291,0 12.40348,0c0.15499,1.04507 0.46085,2.14702 0.46014,3.24876c-0.00885,13.82892 0.32057,27.67569 -0.324,41.47644c-0.20849,4.46382 -3.00291,8.80687 -4.79298,13.52814z" fill="#F2F7FD"/>
  <path id="svg_54" d="m133.91431,138.4393c-0.00046,19.03308 -0.00046,37.6165 -0.00046,56.41367c-4.69559,0 -8.6237,0 -13.12662,0c0,-2.72321 -0.00001,-5.18247 0,-7.64174c0.00005,-15.31731 -0.0311,-30.63472 0.01209,-45.95191c0.02504,-8.88289 -1.11988,-7.89849 8.44526,-8.2166c3.93959,-0.13099 5.07177,1.44718 4.66973,5.39658z" fill="#EAF1FC"/>
  <path id="svg_55" d="m146.80496,93.01254c0.45894,8.88331 5.93022,14.13467 13.09163,18.2219c0.5495,0.31359 0.71683,1.29676 1.11765,2.35168c-8.67093,-1.18494 -13.67266,-6.99657 -16.86043,-14.70926c-2.76123,-6.68074 -3.3949,-13.59022 -0.03578,-20.17767c3.10711,-6.09328 7.49341,-11.18018 14.59855,-13.65819c-2.07792,2.9947 -4.75508,5.83818 -6.91494,9.03155c-1.92244,2.84233 -3.27198,6.07216 -5.30463,9.59672c-3.62039,3.90132 -3.35548,7.08697 0.30795,9.34327z" fill="#004AC1"/>
  <path id="svg_56" d="m146.87991,92.56569c-3.73838,-1.80945 -4.00329,-4.9951 -0.44894,-8.50353c0.41745,2.637 0.47067,5.34684 0.44894,8.50353z" fill="#0064C5"/>
  <ellipse ry="26.01744" rx="26.30814" id="svg_57" cy="88.71508" cx="167.49415" fill="#000000"/>
  <ellipse ry="29.21511" rx="30.23255" id="svg_64" cy="30.57556" cx="224.61623" fill="#0055D6"/>
 </g>
</svg>