<svg width="209" height="197" xmlns="http://www.w3.org/2000/svg" xml:space="preserve" enable-background="new 0 0 209 197" version="1.1">

 <g>
  <title>Layer 1</title>
  <path id="svg_2" d="m210,39.57154c-0.66409,0.91319 -1.7637,1.28084 -1.93002,1.8994c-9.78537,36.39568 -19.49366,72.81209 -29.50052,110.31779c-15.19916,-22.76477 -29.92282,-44.81736 -44.91388,-67.27042c17.84044,-17.74726 35.59933,-35.52191 53.57896,-53.07039c1.2853,-1.25448 4.3226,-1.50622 6.31142,-1.09455c5.32462,1.10218 10.52202,2.81892 16.112,3.96907c0.34204,1.39192 0.34204,3.10627 0.34204,5.2491z" fill="#FFFFFF"/>
  <path id="svg_3" d="m152.41666,198c-0.73421,-0.65465 -0.92748,-1.77429 -1.38717,-1.89717c-21.53121,-5.7547 -43.08505,-11.42493 -64.63841,-17.0967c-1.69577,-0.44625 -3.40687,-0.83424 -5.39076,-1.3175c0,-12.1442 -0.02861,-24.26972 0.05186,-36.39452c0.00677,-1.02002 0.48577,-2.28413 1.18477,-3.01406c6.99514,-7.30478 14.08248,-14.52129 21.62617,-22.25733c5.60898,8.23131 10.8256,15.69926 15.84786,23.29573c10.81882,16.36406 21.56197,32.77834 32.27402,49.21253c1.82854,2.80528 3.34912,5.81127 5.01347,9.09678c-1.38735,0.37224 -2.77626,0.37224 -4.58181,0.37224z" fill="#FFFFFF"/>
  <path id="svg_4" d="m1,148.44418c0.65474,-0.76318 1.77528,-0.95857 1.89745,-1.41891c6.42473,-24.20902 12.7334,-48.44878 19.12425,-72.66683c4.99709,-18.93641 10.08229,-37.84959 15.14528,-56.76855c0.16847,-0.62952 0.52149,-1.20965 1.64817,-1.1375c0,49.70536 0,99.41072 0,149.91667c-12.51656,-3.50352 -24.76824,-6.93289 -37.41753,-10.36567c-0.39762,-2.37395 -0.39762,-4.74449 -0.39762,-7.55921z" fill="#FFFFFF"/>
  <path id="svg_5" d="m88.55583,1c1.09497,0.67293 1.63523,1.74339 2.413,1.95964c13.45391,3.74071 26.94242,7.35662 40.41092,11.04531c4.89865,1.34162 9.76477,2.80196 15.17492,4.36059c-4.06855,4.63211 -7.58494,8.91307 -11.3931,12.9165c-9.48741,9.97391 -19.19134,19.74232 -28.64935,29.74359c-8.34885,8.8284 -16.48284,17.86 -25.51222,27.67178c0,-29.65489 0,-58.20749 0,-87.22875c2.37056,-0.46866 4.74111,-0.46866 7.55583,-0.46866z" fill="#FFFFFF"/>
 </g>
</svg>