<svg version="1.1" id="Layer_1" xmlns="http://www.w3.org/2000/svg" xmlns:xlink="http://www.w3.org/1999/xlink" x="0px" y="0px"
	 width="100%" viewBox="0 0 512 512" enable-background="new 0 0 512 512" xml:space="preserve">
<path fill="#ffffff" opacity="1.000000" stroke="none" 
	d="
M404.981079,57.963104 
	C426.172089,73.843452 444.549591,92.123665 459.698822,113.358566 
	C476.126617,136.385727 488.506348,161.513199 496.539978,188.780304 
	C505.003937,217.507935 507.619904,246.857651 506.169830,276.552612 
	C505.172974,296.966431 501.124573,316.948364 494.946777,336.525269 
	C487.947235,358.706421 478.459320,379.634979 465.699036,399.078430 
	C455.447205,414.699554 443.960144,429.437439 430.333801,442.151611 
	C405.558777,465.268188 377.754639,483.762878 345.602905,495.442688 
	C329.614868,501.250671 313.335846,505.707642 296.646301,508.549713 
	C278.466614,511.645569 260.183777,512.821167 241.648621,511.287079 
	C219.042313,509.416016 196.999496,505.216980 175.612198,497.840485 
	C153.961243,490.373016 133.708481,480.143890 114.918800,466.849091 
	C103.465271,458.745087 92.786568,449.761841 82.767426,440.113495 
	C74.064178,431.732300 66.220291,422.338226 58.819496,412.756195 
	C49.978500,401.309509 42.429485,388.924927 35.890995,375.981537 
	C23.902691,352.249756 15.609737,327.332397 11.616070,300.990265 
	C10.047484,290.643951 9.157743,280.277435 8.600910,269.830780 
	C7.229365,244.099487 10.546371,218.907104 16.996559,194.108658 
	C23.362385,169.634521 33.646198,146.828888 47.100090,125.374046 
	C61.398346,102.572716 79.237717,82.833061 99.851936,65.862457 
	C123.269569,46.583946 149.557999,32.131474 178.652496,22.752226 
	C194.521179,17.636610 210.604050,13.624123 227.044022,11.786439 
	C245.872498,9.681768 264.869965,9.837075 283.802551,11.590011 
	C307.420044,13.776714 330.079285,19.713600 352.087769,28.450521 
	C370.919830,35.926464 388.379944,45.789326 404.981079,57.963104 
M159.199188,414.263062 
	C184.898224,430.396301 212.618347,440.155670 243.102036,442.300873 
	C278.247589,444.774109 311.366364,438.301300 342.528412,421.900848 
	C352.479065,416.663910 352.400818,416.390320 347.928528,406.292450 
	C346.165985,402.312744 343.984894,401.469177 340.142487,403.510712 
	C333.085632,407.260193 325.949829,410.858765 318.437683,413.670227 
	C268.718048,432.277863 220.389008,428.870331 174.593903,402.343292 
	C130.235245,376.648315 103.248207,337.620331 92.986771,287.403320 
	C85.925102,252.845184 89.593307,219.175156 103.194748,186.585358 
	C107.770454,175.621750 113.516861,165.330246 120.076279,155.456512 
	C123.220177,150.724060 121.941193,148.438828 116.436775,147.222534 
	C111.736252,146.183853 109.089577,147.896881 106.544868,151.655807 
	C82.671974,186.919861 71.236870,225.721863 74.069305,268.276855 
	C78.219284,330.626801 106.945374,378.967255 159.199188,414.263062 
M372.238647,128.257370 
	C388.619995,143.802902 401.703003,161.721329 410.889648,182.386337 
	C427.289093,219.276306 430.720703,257.368561 421.047211,296.570801 
	C416.991791,313.005646 410.366608,328.432434 401.918182,343.079590 
	C400.463867,345.600861 399.157623,348.307617 402.869049,349.605255 
	C410.805634,352.380249 416.189362,352.359985 420.069366,344.325317 
	C427.840912,328.232086 434.184448,311.748108 437.586548,294.081940 
	C443.830505,261.658783 442.543762,229.648056 431.731384,198.512222 
	C412.718079,143.760574 376.168945,104.960564 321.970947,84.202477 
	C271.887390,65.020233 222.399460,68.604561 174.343185,92.288521 
	C173.016464,92.942383 171.598709,93.685265 170.640762,94.758995 
	C168.366989,97.307571 168.478363,100.505119 170.011017,103.160545 
	C171.719345,106.120300 174.327774,104.487091 176.596695,103.406662 
	C178.999435,102.262520 181.444107,101.203537 183.822800,100.012177 
	C211.770996,86.014542 241.344223,80.585388 272.417480,83.420006 
	C310.542725,86.897911 343.655579,101.722832 372.238647,128.257370 
M401.682922,189.764847 
	C381.936951,146.094696 349.568146,115.850273 303.867981,101.524704 
	C255.520020,86.369141 209.879730,94.124481 168.441879,123.281654 
	C129.165268,150.918091 106.868980,189.399826 101.769188,236.855667 
	C97.009789,281.144043 108.706970,321.451447 137.122726,356.250275 
	C164.974869,390.358887 201.157501,409.729767 244.890121,413.338165 
	C281.897980,416.391693 316.064423,407.333923 346.668488,385.286133 
	C365.511383,371.711365 381.288574,355.530182 392.732849,335.499725 
	C419.425201,288.781189 421.994751,240.286591 401.682922,189.764847 
z"/>
<path fill="#ffffff" opacity="1.000000" stroke="none" 
	d="
M391.482269,178.598328 
	C421.957245,235.627792 415.496216,304.988281 375.087280,354.393341 
	C350.026489,385.033325 317.489868,402.542786 278.477417,408.186829 
	C202.242233,419.215973 133.071671,369.718811 112.576462,301.958618 
	C95.568947,245.729309 106.693672,194.757416 144.032883,149.919815 
	C161.602432,128.821976 184.390442,114.428459 210.647995,105.745583 
	C225.981995,100.674919 241.736374,98.049438 257.768799,98.176895 
	C282.787262,98.375786 306.566223,104.296570 328.688904,116.189796 
	C355.669006,130.694397 376.503815,151.456970 391.482269,178.598328 
M368.412872,162.061096 
	C364.550934,156.795303 359.941101,152.196136 355.231812,147.729004 
	C328.850494,122.704308 297.439148,109.344116 261.096771,108.513336 
	C232.359589,107.856400 205.803635,115.683403 181.726334,131.522812 
	C140.016022,158.962204 118.546997,198.286316 115.588737,247.516098 
	C113.565453,281.186584 123.508652,311.845398 142.809296,339.633820 
	C180.295303,393.604919 253.803314,414.413300 313.889862,387.729462 
	C371.207794,362.275116 405.654419,303.352600 399.967224,240.818787 
	C397.313049,211.634140 387.049377,185.571106 368.412872,162.061096 
z"/>
<path fill="#ffffff" opacity="1.000000" stroke="none" 
	d="
M197.651398,281.340942 
	C175.222641,258.574127 178.005783,219.329651 202.220245,200.807602 
	C219.032074,187.948013 237.740921,185.736343 256.892609,193.398438 
	C276.193359,201.120178 286.675995,216.411880 289.463226,237.157532 
	C293.580627,267.803802 269.225372,298.211121 234.164948,297.216248 
	C220.106003,296.817291 207.982574,291.465576 197.651398,281.340942 
M232.788254,284.706787 
	C234.286743,284.718414 235.785522,284.755493 237.283661,284.737915 
	C259.033234,284.482697 277.552643,265.483887 277.670685,243.313156 
	C277.787811,221.323532 259.153748,201.761581 237.664673,201.314941 
	C214.893967,200.841705 196.066360,218.117966 194.386551,241.027039 
	C192.822693,262.354950 209.624298,281.917969 232.788254,284.706787 
z"/>
<path fill="#ffffff" opacity="1.000000" stroke="none" 
	d="
M324.925110,273.519592 
	C321.414124,281.825195 315.404053,287.991089 310.682800,295.018311 
	C309.603546,296.624725 307.684265,298.143158 308.779053,300.326233 
	C309.876892,302.515350 312.247742,301.871460 314.177216,301.953491 
	C316.504730,302.052429 318.843140,302.098877 321.168701,301.991364 
	C324.517212,301.836609 326.446899,302.694885 326.442047,306.673401 
	C326.437378,310.520538 324.841797,311.506775 321.321838,311.425323 
	C313.665649,311.248047 306.001129,311.449951 298.343292,311.312592 
	C296.194641,311.274048 293.250305,312.458832 292.192352,309.522095 
	C291.218109,306.817780 291.478088,303.933990 293.335754,301.441986 
	C297.215790,296.236969 301.124420,291.052429 304.940125,285.800507 
	C308.164612,281.362305 311.890778,277.261719 314.339752,272.292084 
	C316.747864,267.405334 315.945923,263.447357 312.232117,261.363739 
	C308.522888,259.282715 304.757568,260.559082 302.045227,265.542175 
	C299.526093,270.170197 295.742493,267.713470 292.456635,268.152222 
	C291.231445,263.148834 293.903381,257.146667 298.599487,254.017090 
	C304.788818,249.892395 314.465332,249.940201 320.336243,254.124527 
	C325.523010,257.821228 327.248108,264.758148 324.925110,273.519592 
z"/>
</svg>