<svg width="768" height="768" xmlns="http://www.w3.org/2000/svg" xml:space="preserve" enable-background="new 0 0 768 768" version="1.1">

 <g>
  <title>Layer 1</title>
  <path id="svg_2" d="m161.97122,469.8222c9.25639,4.04868 18.49639,8.13532 27.77385,12.13511c8.89162,3.8334 17.90828,7.38766 26.71541,11.40362c13.36735,6.09537 26.54678,12.60269 39.91101,18.70517c8.65238,3.95093 17.53513,7.39423 26.23682,11.24109c11.06805,4.89301 22.05944,9.95947 33.08004,14.95966c11.02006,5 22.08863,9.89727 33.03711,15.04956c10.05088,4.72979 19.95389,9.77294 29.95865,14.60223c2.51911,1.21594 5.17084,2.16046 7.77484,3.19653c4.82825,1.92102 6.13593,6.5578 3.04114,10.86701c-8.53879,11.88946 -17.52252,23.49127 -25.45798,35.77057c-4.96826,7.6878 -7.43988,16.20617 -5.44226,26.10101c1.35376,6.70569 2.85776,13.10663 6.74494,18.52704c2.05307,2.86291 5.41046,4.78375 9.6998,4.74353c7.58615,-0.07098 15.17636,0.74493 22.7695,0.84759c9.66717,0.13074 18.82971,-2.09008 28.10571,-5.04455c10.67136,-3.39893 20.47598,-8.19501 29.80365,-14.05872c4.86526,-3.05841 9.03815,-7.21826 14.07037,-10.77405c1.08457,-0.65191 1.62253,-1.41052 2.16053,-2.16906c0,0 0.04208,0.06531 0.35528,0.04419c1.09165,-1.02869 1.87006,-2.03626 2.6485,-3.04383c0,0 0.03464,0.06708 0.33191,0.03479c0.72793,-0.7005 1.1586,-1.36877 1.58923,-2.03698c0,0 0.02222,-0.07935 0.29315,-0.03022c0.95624,-0.21344 1.64154,-0.47601 2.32682,-0.73864c2.51697,-3.8957 5.05178,-7.78003 7.54605,-11.69025c2.66836,-4.18311 5.29846,-8.39075 8.19354,-13.12537c0.3006,-0.9234 0.35291,-1.30914 0.40521,-1.69488c-0.00003,0 0.07056,-0.02295 0.44825,0.10919c1.11871,-0.07684 2.34042,-0.08295 2.52737,-0.52588c2.24527,-5.31915 4.33728,-10.70294 6.4693,-16.06988c5.72839,-15.93122 11.49942,-31.84723 17.16238,-47.80164c2.03608,-5.73614 3.68262,-11.61169 5.76154,-17.33106c1.04065,-2.86285 2.65375,-5.51757 4.39142,-8.65423c0.79712,-0.41901 1.21081,-0.45032 2.09118,-0.43262c5.28284,0.05335 10.10254,0.17353 14.91376,0.02344c3.49139,-0.10883 6.9715,-0.5755 10.82648,-0.90308c0.86401,-0.02368 1.35827,-0.02679 1.95111,0.22779c0.61517,0.40423 1.13165,0.55078 1.64819,0.69732c-0.24579,0.59125 -0.77698,1.2259 -0.69458,1.76715c1.24622,8.18537 -2.89477,15.31806 -4.74963,22.82136c-2.38178,9.63446 -5.88245,19.03039 -9.42011,28.33166c-4.71057,12.38501 -10.13885,24.49676 -14.86206,36.87732c-5.99627,15.71747 -14.57037,29.92578 -25.16229,42.82428c-7.25714,8.83746 -15.57312,16.79895 -23.28369,25.27215c-10.79672,11.86457 -25.03561,18.62146 -38.77628,26.00867c-6.21496,3.34125 -13.27557,4.65656 -20.43759,5.21472c-2.97851,0.23218 -5.8071,2.02802 -8.80127,2.51978c-3.08301,0.50647 -6.285,0.28143 -9.43435,0.39294c-6.13486,0.21723 -12.32349,1.047 -18.38865,0.50025c-6.02938,-0.54346 -11.92651,-2.50342 -17.89755,-3.76703c-2.83133,-0.59912 -5.75296,-0.82276 -8.54156,-1.56329c-9.18586,-2.4394 -17.77863,-6.31708 -26.31864,-10.48884c-10.85901,-5.30462 -22.09161,-9.84069 -33.12234,-14.79895c-7.84909,-3.52807 -15.5658,-7.35607 -23.46112,-10.77429c-7.64008,-3.30774 -15.51538,-6.07519 -23.13513,-9.42602c-7.26349,-3.19416 -14.25217,-7.01252 -21.51131,-10.21747c-4.86598,-2.14826 -10.03545,-3.59827 -14.9887,-5.56336c-3.41569,-1.35504 -6.71855,-3.00598 -10.02853,-4.61383c-7.19893,-3.49701 -14.29191,-7.22308 -21.57457,-10.53369c-7.3871,-3.35803 -14.99969,-6.21704 -22.42476,-9.4956c-10.95179,-4.83588 -21.81398,-9.87415 -32.73495,-14.7804c-9.6435,-4.33227 -19.28305,-8.67615 -28.98495,-12.87482c-7.32573,-3.17022 -14.93014,-5.74615 -22.08398,-9.2528c-11.32425,-5.55085 -22.69649,-11.13904 -33.40493,-17.75324c-5.26765,-3.25366 -9.42369,-8.5686 -13.47641,-13.45379c-4.02272,-4.84888 -8.23346,-9.92701 -10.65008,-15.63001c-3.36364,-7.93774 -6.83363,-15.888 -7.67599,-24.88611c-1.45506,-15.54306 3.38522,-29.0758 11.74826,-41.45639c3.18928,-4.7214 8.1126,-8.59445 12.94774,-11.79263c5.10624,-3.37747 10.80447,-6.67914 16.68166,-7.88986c10.14872,-2.09067 20.09191,-5.30829 31.18597,-2.17096c8.56314,2.4216 16.90231,5.04312 25.15466,8.32263c4.43933,1.76416 9.44326,2.1076 14.57798,2.67138c1.1493,-0.94372 2.22186,-1.29482 2.62495,-2.0187c2.07248,-3.72171 4.11711,-7.4733 5.88634,-11.34476c1.33246,-2.91568 2.23501,-6.02783 3.32893,-9.05255c0.82799,-2.95688 1.35811,-6.04007 2.54726,-8.84375c2.32734,-5.48731 5.29527,-10.70944 7.50786,-16.23755c4.5059,-11.25787 8.68649,-22.64593 13.41571,-34.44479c2.46222,-6.81763 4.50985,-13.17081 6.55746,-19.52399c3.00438,-10.06561 6.28052,-20.05948 8.96182,-30.21042c7.81725,-29.59466 15.40392,-59.25027 23.06731,-88.88553c6.97789,-26.98431 14.70106,-53.71591 25.80112,-79.37045c4.56402,-10.54837 7.9543,-21.66795 13.22992,-31.82582c4.55081,-8.7623 10.84523,-16.65539 16.70385,-24.68839c3.48667,-4.78066 7.06513,-9.77735 11.60157,-13.43894c5.9013,-4.76325 12.50293,-8.91404 19.35745,-12.1568c5.07443,-2.40063 11.24115,-2.38845 16.55093,-4.41938c8.5784,-3.28113 17.38346,-2.86833 26.19031,-2.7456c2.84979,0.03972 5.65362,1.45141 8.53183,1.83452c4.09119,0.54456 8.3201,0.30591 12.32672,1.16463c4.17923,0.89571 8.0791,3.06884 12.25189,4.02597c9.47748,2.17389 19.07209,3.8326 28.57007,5.92344c5.16529,1.13705 10.19333,2.89443 15.35501,4.05205c2.86841,0.6433 5.99637,0.2201 8.81153,0.99188c6.9414,1.90304 13.70352,4.47387 20.66662,6.27902c4.68918,1.21565 9.61139,1.50847 14.40488,2.35291c4.55996,0.8033 9.11294,1.67933 13.62369,2.71989c4.97558,1.14778 10.38333,1.61974 14.75143,3.9691c11.2092,6.02885 23.85464,5.77955 35.64398,9.14601c4.9964,1.42675 10.31006,1.49267 15.03382,4.29197c1.80407,1.06914 4.41345,0.77939 7.22186,1.35122c1.53101,0.38458 2.49597,0.52684 3.461,0.6691c0,-0.00001 0.40539,0.08334 0.75518,0.32825c1.31483,0.38716 2.27979,0.5294 3.24482,0.67164c0,0 0.41162,0.08385 0.76739,0.32949c1.30982,0.38484 2.26386,0.52404 3.2179,0.66324c0,0 0.41827,0.0901 0.77801,0.33628c1.31385,0.38536 2.26789,0.52453 3.22199,0.66372c0,0 0.41827,0.0901 0.77801,0.33629c1.31385,0.38537 2.26789,0.52454 3.22199,0.66371c0,0 0.41827,0.0901 0.77807,0.33624c1.31385,0.38535 2.26789,0.52455 3.22193,0.66376c0,0 0.41827,0.0901 0.77801,0.33627c1.31385,0.38535 2.26795,0.52454 3.22199,0.66373c0,0 0.41827,0.0901 0.77807,0.33623c1.31385,0.38535 2.26789,0.52455 3.22193,0.66377c0,0 0.41827,0.0901 0.77807,0.33624c1.31385,0.38534 2.26789,0.52454 3.22193,0.66376c0,0 0.41827,0.0901 0.77801,0.33625c1.31385,0.38536 2.26795,0.52455 3.22199,0.66375c0,0 0.41827,0.0901 0.77807,0.33624c1.31385,0.38534 2.26789,0.52455 3.22193,0.66376c0,0 0.41827,0.09009 0.78851,0.29766c0.89856,0.40448 1.42682,0.60139 1.95508,0.7983c13.79217,3.3496 27.58435,6.6992 41.95416,10.38998c1.48413,0.3965 2.39063,0.45182 3.29712,0.50711c0,0.00002 0.42413,0.09535 0.78351,0.34131c1.31189,0.38365 2.2644,0.52133 3.21692,0.65903c0,0 0.42395,0.09517 0.78314,0.34103c1.31177,0.38358 2.26428,0.52127 3.21686,0.65897c0,0 0.42395,0.09517 0.7832,0.34103c1.31171,0.38356 2.26428,0.52126 3.2168,0.65897c0,0 0.42395,0.09517 0.7832,0.34103c1.31177,0.38358 2.26428,0.52127 3.2168,0.65897c0,0 0.42395,0.09517 0.7832,0.34105c1.31177,0.38356 2.26428,0.52125 3.2168,0.65895c0,0 0.42395,0.09517 0.7832,0.34103c1.31171,0.38358 2.26428,0.52127 3.2168,0.65897c0,0 0.42395,0.09517 0.7832,0.34103c1.31183,0.38356 2.26428,0.52126 3.2168,0.65897c0,0 0.41803,0.09132 0.77142,0.33763c1.31592,0.38666 2.27844,0.52701 3.24097,0.66737c0,0 0.41235,0.08998 0.76813,0.34348c1.27911,0.75915 2.20233,1.2648 3.29516,2.06628c1.435,0.08577 2.70044,-0.12433 3.96588,-0.33444c0.54578,-0.25328 1.09162,-0.50656 1.64508,-0.23595c-0.38293,0.97464 -0.77356,1.42536 -1.92627,2.75562c2.08039,-0.73836 3.18085,-1.12892 4.28132,-1.51949c0.54577,-0.25335 1.09149,-0.5067 1.64495,-0.2362c-0.38299,0.9743 -0.77374,1.42476 -1.92151,2.74789c2.0796,-0.73512 3.17804,-1.12341 4.27656,-1.51172c5.25091,1.35301 10.77136,2.08399 15.68609,4.213c6.4643,2.80026 13.60242,3.12634 19.86285,6.88411c9.91273,5.95004 19.1579,12.50533 25.84809,22.01901c9.89624,14.07292 12.4834,29.7824 9.25085,46.49559c-0.70361,3.63796 -2.26379,7.11025 -3.61377,11.32895c-2.15899,4.85227 -4.13372,9.03441 -6.10852,13.21657c-3.86102,7.65833 -9.39318,13.90033 -16.30407,18.90369c-4.12177,2.98413 -8.19465,6.1362 -12.65729,8.52578c-6.71619,3.5961 -13.42401,6.91211 -21.65167,6.73017c-5.82233,-0.12876 -11.67054,2.26504 -17.5597,3.20315c-2.71038,0.43177 -5.54669,0.07364 -8.32586,0.07364c-0.00666,-0.46457 -0.01325,-0.92914 -0.0199,-1.39371c4.26398,0 8.52801,0 12.79199,0c-0.00702,-0.2865 -0.01404,-0.57299 -0.02105,-0.85949c-9.89344,0 -19.78687,0 -29.6803,0c-0.00629,0.24859 -0.01251,0.49716 -0.0188,0.74575c4.75232,0 9.50458,0 14.25683,0c0.05469,0.43891 0.10938,0.87784 0.16407,1.31675c-1.04554,0.21838 -2.12079,0.71798 -3.1319,0.61099c-8.64386,-0.91449 -17.3233,-1.64706 -25.8952,-3.03332c-5.6991,-0.9217 -11.18305,-3.13117 -16.87098,-4.18015c-3.81543,-0.70364 -7.37579,-0.23907 -11.14446,2.34604c-3.83924,2.63348 -9.04682,3.43484 -13.76856,4.56473c-3.47131,0.83056 -7.12537,0.89782 -11.72266,1.42212c1.15387,-22.06931 4.0243,-43.43776 10.86969,-64.87915c3.10071,-6.51394 5.85443,-12.41537 8.60816,-18.31678c2.80029,-3.91598 5.60058,-7.83197 9.01831,-12.02078c1.08838,-1.24258 1.55932,-2.21234 2.03027,-3.1821c8.03351,-6.96858 16.06702,-13.93719 24.49713,-21.24982c-4.89325,-1.5245 -10.20794,-3.33775 -15.61126,-4.83015c-10.44513,-2.88492 -20.92639,-5.64249 -31.41913,-8.35046c-7.94116,-2.04947 -15.86432,-5.25588 -23.90009,-5.61682c-14.97595,-0.6727 -28.76013,-5.66918 -42.94268,-9.33022c-9.67426,-2.49728 -19.35557,-4.96738 -29.02378,-7.4877c-9.15765,-2.38724 -18.27353,-4.94341 -27.47,-7.16812c-2.84543,-0.68833 -5.98917,-0.15748 -8.82474,-0.86885c-3.0169,-0.75685 -5.73923,-2.67436 -8.75311,-3.46001c-4.97226,-1.29614 -10.08987,-2.02401 -15.11789,-3.12115c-2.81207,-0.61359 -5.52948,-1.70385 -8.3562,-2.19748c-4.7981,-0.83793 -9.68717,-1.18348 -14.45642,-2.14201c-1.6312,-0.32784 -2.89554,-2.40535 -4.53455,-2.78175c-14.83352,-3.4065 -29.70459,-6.65208 -44.58267,-9.86115c-7.34082,-1.58336 -14.70029,-3.09978 -22.09332,-4.40927c-2.1045,-0.37276 -4.35614,0.14126 -6.54086,0.15493c-5.83918,0.03652 -11.6883,-0.16652 -17.51282,0.13055c-2.03412,0.10376 -4.21009,1.0724 -5.97379,2.19299c-7.15103,4.54348 -15.91653,6.82321 -20.33532,15.23214c-2.19919,4.18502 -5.35688,7.86636 -8.45496,12.28929c-1.74783,2.28233 -3.39108,3.90535 -4.44138,5.84882c-2.44497,4.52424 -4.60434,9.20282 -7.12808,14.32333c0.06262,0.12697 0.54175,1.09848 1.02088,2.06999c0,0 -0.0452,-0.06047 -0.36277,-0.09929c-0.7485,0.6758 -1.17947,1.39041 -1.61041,2.10504c-4.36206,11.50124 -8.86215,22.95254 -13.04862,34.51734c-4.48367,12.38573 -9.22306,24.72113 -12.83218,37.36917c-3.51015,12.30127 -5.4593,25.03894 -8.58941,37.46014c-3.43601,13.63511 -7.47783,27.11676 -11.17655,40.68683c-1.77602,6.51602 -3.21115,13.12763 -5.08749,19.61295c-2.20319,7.61499 -4.80333,15.11444 -7.0642,22.71371c-1.26703,4.25879 -2.13788,8.63419 -3.31956,12.9206c-0.28424,1.031 -1.09455,1.91702 -1.9046,3.49585c-0.79529,2.29083 -1.45099,3.92944 -1.88381,5.62496c-1.41681,5.55036 -2.75252,11.12146 -4.1194,16.68457c-1.16565,2.27622 -2.57545,4.46216 -3.45576,6.84385c-4.41771,11.95199 -8.43596,24.05862 -13.13005,35.89865c-2.51126,6.33423 -6.10334,12.23993 -9.36812,19.03299c-3.14801,6.91437 -6.23201,13.09173 -9.0419,19.39132c-0.56363,1.26359 -0.08446,2.99228 -0.08611,4.5065m-110.80152,35.86277c1.2836,3.45376 1.95835,7.31765 3.95937,10.28818c7.45989,11.07434 17.46351,19.12286 29.98981,24.10107c10.662,4.2373 21.2234,8.75006 31.68734,13.4566c9.33717,4.19977 18.38027,9.05658 27.73939,13.20307c7.93863,3.51721 16.25961,6.17004 24.20549,9.67254c15.18855,6.69501 30.19189,13.80896 45.34657,20.58246c10.57448,4.7265 21.31836,9.0733 31.90312,13.77747c10.4115,4.62719 20.7161,9.49469 31.07065,14.25018c8.68381,3.98816 17.3364,8.04688 26.06955,11.92407c6.88538,3.05683 13.87238,5.88477 21.60993,9.15015c-2.48111,-21.90125 5.55728,-39.66577 18.25747,-56.06409c-2.83386,-1.57184 -5.14267,-3.1015 -7.64239,-4.19464c-9.28681,-4.06116 -18.71982,-7.79602 -27.93854,-12.00268c-8.86258,-4.04413 -17.43878,-8.71576 -26.30133,-12.75989c-11.96308,-5.45892 -24.11862,-10.49481 -36.11531,-15.88214c-6.73203,-3.02307 -13.25096,-6.5199 -19.97635,-9.55878c-5.52101,-2.49481 -11.29501,-4.43341 -16.79631,-6.96716c-8.8506,-4.07636 -17.51138,-8.56464 -26.35979,-12.64594c-8.22734,-3.79486 -16.63142,-7.20486 -24.88945,-10.93539c-6.59286,-2.9783 -13.04184,-6.27478 -19.63009,-9.26377c-7.09409,-3.21847 -14.23368,-6.34579 -21.43304,-9.32025c-5.79394,-2.39377 -11.68707,-4.55374 -17.57832,-6.70187c-1.75308,-0.63919 -3.67096,-0.81033 -5.4743,-1.33109c-3.83693,-1.10797 -7.67585,-3.36718 -11.46504,-3.26892c-12.20742,0.31668 -27.77935,6.47324 -31.05487,22.37946c0.16222,2.47403 0.32444,4.94806 0.81644,8.11136m633.01933,-254.42082c6.8883,0.46603 12.18066,-3.47262 17.62896,-6.6859c3.00525,-1.77237 6.4347,-3.91754 8.00574,-6.80252c3.28778,-6.03753 6.25641,-12.47649 7.94458,-19.10981c3.47217,-13.64286 -2.48688,-21.91221 -10.1499,-24.41287c-9.12848,-2.97888 -18.1236,-5.81001 -28.82355,-2.12236c-14.15875,4.87966 -27.87817,9.66554 -39.69073,19.18849c-8.32001,6.70735 -14.76398,14.53868 -18.16632,24.7533c-0.67377,2.02303 -2.3393,3.93809 -2.35785,5.91414c-0.05024,5.35643 2.30224,7.35513 8.48315,9.05635c8.0296,2.21005 16.37146,0.43312 24.61133,3.62076c10.52466,4.07156 21.58764,1.24009 32.51459,-3.39958z" fill="#429CFB"/>
  <path id="svg_3" d="m581.54993,485.48605c0.09484,1.13111 0.18969,2.26224 0.28454,3.39334c-0.3247,0.07315 -0.64947,0.14631 -0.97418,0.21946c-0.28174,-0.45655 -0.79492,-0.905 -0.81128,-1.37085c-0.38214,-10.91712 -0.75159,-21.83506 -1.03882,-32.75504c-0.37488,-14.25076 -0.58264,-28.50653 -1.04187,-42.75433c-0.32983,-10.23178 -0.95355,-20.45404 -1.46747,-31.12317c-17.35608,36.6528 -34.61535,73.10113 -51.86999,109.53967c-0.46002,-0.3905 -0.95319,-0.80911 -1.44629,-1.22772c-0.94464,3.96973 -4.16803,2.50714 -6.53265,2.53726c-10.16452,0.12952 -20.33185,0.0885 -30.49762,0.02155c-1.62818,-0.01071 -3.25336,-0.46955 -4.87995,-0.72122c0.04084,-0.40973 0.08167,-0.81949 0.12253,-1.22922c12.35736,0 24.71472,0 37.07211,0c0.00123,-0.30161 0.00251,-0.60318 0.00373,-0.90479c-12.34766,0 -24.69538,0 -37.48136,0c0,-3.52017 0,-6.59744 0,-9.67471c-0.31054,-0.00397 -0.62109,-0.00797 -0.93164,-0.01193c0,3.04544 0,6.09085 0,9.13629c-0.32815,0.0087 -0.65631,0.01739 -0.98449,0.02609c-0.69175,-7.76416 -1.56214,-15.51743 -2.03543,-23.29486c-0.8111,-13.32846 -1.30881,-26.67575 -2.0626,-40.00806c-0.55655,-9.84368 -1.32687,-19.6752 -1.97372,-29.51397c-1.01392,-15.422 -2.00534,-30.84546 -3.00366,-46.2685c-0.66916,-10.33731 -1.288,-20.67819 -2.03482,-31.00985c-0.17121,-2.36802 -0.77607,-4.70466 -1.2006,-7.16745c15.18497,0 29.90857,0 45.00827,0c0.07001,1.27508 0.19706,2.70715 0.22007,4.14086c0.34387,21.418 0.77636,42.83533 0.97497,64.25477c0.15967,17.21673 0.03235,34.43612 0.03235,51.65435c0.79193,-0.00546 1.58386,-0.01092 2.37579,-0.01635c-0.77179,-39.94413 -1.54358,-79.88825 -2.31536,-119.83237c0.28772,-0.01028 0.57544,-0.02057 0.86315,-0.03085c0.35883,7.97167 0.91022,15.94021 1.04096,23.91561c0.42755,26.0831 0.66052,52.16938 1.08832,78.25251c0.0531,3.23596 0.82916,6.46005 1.36639,10.39401c2.99304,-5.97015 5.86041,-11.51401 8.573,-17.1326c9.08276,-18.81329 18.12341,-37.64697 27.15405,-56.48535c5.83313,-12.16812 11.77942,-24.28641 17.33258,-36.5817c1.68177,-3.72369 4.16242,-4.87255 7.80237,-4.86392c8.99799,0.02136 17.9961,0.00702 27.09045,0.00702c0.206,0.44418 0.56537,0.86453 0.57612,1.29367c0.37109,14.75092 0.60998,29.50583 1.08813,44.25308c0.30212,9.31736 0.95447,18.62336 2.28772,27.90848c-0.86426,-23.58554 -1.72845,-47.17105 -2.59271,-70.75659c0.28338,-0.01352 0.56671,-0.02707 0.85003,-0.04059c0.47303,7.03385 1.12726,14.06107 1.38483,21.10278c0.76215,20.83396 1.30786,41.67582 2.06104,62.51011c0.34393,9.51159 0.97613,19.01275 1.55554,29.99667c1.36059,-2.45563 2.22394,-3.80292 2.88696,-5.24249c7.92072,-17.19761 15.76569,-34.43024 23.7229,-51.61087c8.49878,-18.34952 16.99866,-36.70047 25.79041,-54.90958c0.95587,-1.97992 3.81329,-4.25107 5.8457,-4.30679c13.79663,-0.3783 27.60864,-0.19776 41.43054,0.61734c-13.19525,0 -26.39056,0 -39.58587,0c-0.00232,0.54117 -0.00464,1.08236 -0.00696,1.62353c14.01672,0 28.03344,0 42.98047,0c-0.99329,2.51779 -1.72467,4.87293 -2.81244,7.04996c-9.57263,19.15936 -19.23133,38.27576 -28.81897,57.42764c-7.70972,15.40064 -15.29273,30.8649 -23.04553,46.24362c-10.94141,21.70377 -21.91126,43.39438 -33.12726,64.95618c-0.94385,1.81439 -3.81385,3.6593 -5.83557,3.71243c-12.7898,0.33588 -25.59272,0.17038 -38.40387,-0.73513c12.28869,0 24.57739,0 36.86609,0c-0.00062,-0.28067 -0.00123,-0.56135 -0.00184,-0.84202c-12.21057,0 -24.42114,0 -36.86468,0c-0.46314,-1.52237 -0.85858,-2.82211 -1.44983,-4.43103c-0.51544,-18.4923 -0.82739,-36.67559 -1.1817,-54.85809c-0.01496,-0.76855 -0.42395,-1.52948 -0.79889,-2.71902c-0.14948,-19.19315 -0.14948,-37.96119 -0.14948,-56.72925c-0.67419,0.00326 -1.34845,0.00653 -2.02264,0.0098c0,2.12371 -0.03833,4.24819 0.00617,6.371c0.32183,15.36663 0.6618,30.73291 0.99163,46.09939c0.02851,1.32822 -0.04309,2.66449 0.09912,3.97895c0.02613,0.24173 0.86017,0.39602 1.13025,1.09863c0.133,18.84872 0.45197,37.18964 0.80237,55.52994c0.01209,0.63116 0.33984,1.25631 0.52039,1.88427m-104.54993,-40.17144c0.49008,6.0017 0.98013,12.00341 1.47021,18.00512c0.25873,-0.01721 0.51746,-0.03445 0.77619,-0.05166c-0.50244,-9.92118 -1.00488,-19.84235 -1.50732,-29.76349c-0.24637,-0.00064 -0.49271,-0.00128 -0.73908,-0.00192c0,3.61932 0,7.23861 0,11.81195m121.29309,-134.31461c1.73773,0 3.47546,0 5.2132,0c-0.00336,-0.24109 -0.00666,-0.48215 -0.01001,-0.72324c-8.32605,0 -16.6521,0 -24.97815,0c-0.00147,0.24109 -0.00299,0.48215 -0.00446,0.72324c6.27576,0 12.55152,0 19.77942,0z" fill="#FFFFFF"/>
  <path id="svg_4" d="m370.0195,447.11853c6.27634,-7.38589 2.70111,-14.58685 -5.92993,-19.11624c-3.50156,-1.83759 -7.03406,-3.67075 -10.70496,-5.11954c-7.06143,-2.78689 -14.41815,-4.88971 -21.30642,-8.03412c-7.55613,-3.44931 -14.88361,-7.48639 -21.99671,-11.78674c-4.22397,-2.55362 -8.72223,-5.47589 -11.52133,-9.36624c-3.94785,-5.48685 -7.64395,-11.71967 -9.27093,-18.18164c-2.56165,-10.17398 -1.66517,-20.57074 2.61926,-30.54181c3.55408,-8.2713 10.17322,-13.99039 16.0842,-20.23303c3.70538,-3.91333 8.10492,-7.66809 12.92773,-9.92148c10.23544,-4.7825 21.11237,-8.11737 32.61041,-7.74811c10.66599,0.34253 21.4299,0.53036 31.92884,2.18988c7.30075,1.15399 14.47851,4.14676 21.23522,7.32883c4.94236,2.32766 9.6117,5.35617 14.0413,8.99963c4.55133,3.74368 7.5216,8.80313 14.48568,13.11069c-2.56125,1.54114 -4.62735,2.28357 -5.97155,3.70749c-2.1522,2.27984 -3.72956,5.09048 -5.73115,7.52792c-1.70349,2.07446 -5.91946,2.11789 -4.81543,6.61658c0.18049,0.7355 -2.85491,2.28122 -4.42721,3.42035c-1.77225,1.28393 -4.68198,1.75967 -3.4772,5.1766c0.05575,0.15824 -2.20697,1.54981 -3.43994,1.63394c-1.33481,0.09107 -3.28809,-0.23614 -4.0048,-1.14413c-4.43237,-5.61533 -10.75024,-8.54071 -16.39682,-12.50391c-5.13086,-3.60116 -10.90466,-5.28344 -16.50506,-6.63449c-8.15512,-1.96734 -16.80399,-3.14837 -25.10553,0.17017c-2.65726,1.06229 -5.11768,2.61706 -7.78128,4.00549c-0.68589,1.3888 -1.43631,3.12363 -2.36823,4.75479c-2.77469,4.85654 -0.51455,10.50629 4.65552,12.65342c5.06876,2.10507 9.79367,5.04574 14.87906,7.10122c7.1434,2.88724 14.67221,4.86911 21.68301,8.02329c7.72009,3.47323 15.51587,7.16503 22.37677,12.03286c5.05451,3.58615 8.41083,9.47315 12.9719,13.87012c6.13693,5.9162 7.00561,13.27179 7.30438,21.14529c0.40252,10.60944 -0.56979,21.03214 -6.10574,30.16651c-3.96564,6.5433 -8.56067,13.22037 -14.39136,17.98004c-6.43665,5.25424 -14.18396,9.99091 -22.11618,12.07129c-12.06406,3.16403 -24.51435,6.27985 -37.40949,3.62128c-5.87735,-1.21167 -12.06131,-0.95423 -17.92508,-2.20926c-7.71478,-1.65122 -15.28558,-4.02271 -22.84713,-6.31888c-2.99976,-0.91092 -6.05686,-2.07245 -8.65497,-3.77893c-6.19589,-4.06958 -12.33396,-8.28464 -18.08872,-12.9433c-2.70694,-2.19131 -4.72803,-5.39072 -6.54342,-8.44074c-0.69471,-1.16714 -0.5224,-4.24511 0.2337,-4.65753c5.40872,-2.94976 7.3515,-8.49536 10.83151,-12.91803c4.00498,-5.08978 9.49231,-9.01312 15.01908,-14.06796c2.21755,2.46011 4.39184,5.79572 7.39572,8.00174c5.34918,3.92841 10.63546,7.79257 16.81228,10.83063c8.42066,4.14163 17.13913,6.2439 25.97922,7.86163c8.00943,1.4657 16.31107,1.55445 23.73123,-3.67843c1.85465,-1.30796 5.43109,-0.24253 5.03055,-4.65714z" fill="#FFFFFF"/>
  <path id="svg_5" d="m424.1517,421.04129c-4.45602,-6.9375 -9.01657,-13.81174 -13.28592,-20.8623c-0.93136,-1.53812 -0.82205,-3.70643 -1.26382,-5.94901c18.55585,0 36.62244,0 55.96033,0c0.46008,4.12152 1.02346,8.48096 1.4039,12.85629c0.20098,2.31177 -0.51593,4.86811 0.23159,6.93408c1.66803,4.61011 -0.59225,5.03583 -4.19906,5.00605c-10.14786,-0.08383 -20.29688,-0.02942 -30.44544,-0.02948c-1.62988,-0.00003 -3.25976,0 -4.88961,0c-0.00196,0.41433 -0.00388,0.82864 -0.0058,1.24298c12.64172,0 25.28341,0 37.58914,0.41018c-13.92242,0.40387 -27.50888,0.39753 -41.09531,0.39121m12.3483,-25.04541c-8.26181,0 -16.52362,0 -24.78543,0c0.00616,0.22852 0.01233,0.45706 0.01852,0.68558c17.18735,0 34.37473,0 51.56211,0c0.00012,-0.22852 0.00024,-0.45706 0.00039,-0.68558c-8.59854,0 -17.19705,0 -26.79559,0z" fill="#3E9FFC"/>
  <path id="svg_6" d="m268.38626,150.92041c-0.81323,-0.8349 -1.29236,-1.80641 -1.35498,-1.93338c2.52374,-5.12051 4.68311,-9.79909 7.12808,-14.32333c1.0503,-1.94347 2.69355,-3.56649 4.3693,-5.48575c-3.06818,7.10151 -6.43824,14.35368 -10.1424,21.74246z" fill="#09F1FF"/>
  <path id="svg_7" d="m161.96365,469.46063c0.00922,-1.15265 -0.46995,-2.88134 0.09368,-4.14493c2.80989,-6.29959 5.89389,-12.47695 8.9279,-19.06335c0.04535,1.35297 0.59764,3.32504 -0.05276,4.74707c-2.79963,6.12125 -5.95229,12.08102 -8.96882,18.46121z" fill="#26D2FF"/>
  <path id="svg_8" d="m504.7099,587.07831c-1.75296,5.44641 -3.84497,10.8302 -6.09024,16.14935c-0.18695,0.44293 -1.40866,0.44904 -2.52319,0.48902c2.49579,-5.68531 5.36511,-11.20154 8.61343,-16.63837z" fill="#20D9FF"/>
  <path id="svg_9" d="m141.57346,430.94476c-0.72187,2.98856 -1.62442,6.10071 -2.95688,9.01639c-1.76923,3.87146 -3.81386,7.62305 -5.88634,11.34476c-0.40309,0.72388 -1.47565,1.07498 -2.49675,1.71924c2.17363,-5.16877 4.52283,-10.49869 7.07423,-15.72995c1.07868,-2.21167 2.58289,-4.21582 4.26574,-6.35044z" fill="#12E5FF"/>
  <path id="svg_10" d="m171.58063,351.91107c-1.65444,6.30063 -3.70207,12.65381 -6.09033,19.09537c1.67195,-6.2887 3.68455,-12.66574 6.09033,-19.09537z" fill="#1ECAFF"/>
  <path id="svg_11" d="m197.39185,383.97891c1.02819,-5.39313 2.3639,-10.96423 3.78071,-16.51459c0.43282,-1.69552 1.08852,-3.33413 1.75017,-5.29943c0.34123,1.32025 1.14133,3.11425 0.7084,4.53167c-1.76133,5.76691 -3.90065,11.41837 -6.23928,17.28235z" fill="#1ECBFF"/>
  <path id="svg_12" d="m507.68811,310c-12.72272,0 -24.98132,0 -37.23993,0c0.00253,-0.24445 0.00507,-0.48892 0.0076,-0.73337c13.68729,0 27.3746,0 41.06189,0c0.00537,0.16968 0.01074,0.33939 0.01611,0.50907c-1.12716,0.07476 -2.25436,0.14953 -3.84567,0.2243z" fill="#FFFFFF"/>
  <path id="svg_13" d="m424.29675,421.44781c13.44138,-0.4002 27.02784,-0.39386 41.07178,-0.38195c-0.18616,0.31442 -0.82977,0.89218 -1.47357,0.89242c-13.15106,0.00498 -26.30213,-0.05606 -39.59821,-0.51047z" fill="#00FFFF"/>
  <path id="svg_14" d="m534.02875,512.88922c-0.41364,0.03131 -0.82733,0.06262 -1.55225,0.09516c0.28082,-0.9928 0.85645,-2.8411 1.46759,-2.85294c9.40247,-0.18231 18.81018,-0.16519 28.21442,-0.03436c0.617,0.00857 1.21594,1.31134 1.74994,2.44937c-0.58997,0.29071 -1.10645,0.14416 -1.57849,-0.55457c-9.32496,-0.68243 -18.6944,-0.81524 -28.06421,-0.89856c-0.07648,-0.0007 -0.15894,0.67002 -0.24836,1.21942c-0.00982,0.1922 0.01136,0.57648 0.01136,0.57648z" fill="#00FFFF"/>
  <path id="svg_15" d="m598.62909,206.83511c-2.4242,5.95912 -5.17792,11.86055 -8.20258,17.99018c-0.38446,-4.82016 4.65625,-16.13213 8.20258,-17.99018z" fill="#16DFFF"/>
  <path id="svg_16" d="m741.37024,251.16965c1.64484,-4.2392 3.61957,-8.42134 5.63696,-12.94477c0.34839,0.80178 1.26374,2.27323 0.85523,3.03148c-1.84973,3.43355 -4.07331,6.66567 -6.49219,9.91329z" fill="#16DBFF"/>
  <path id="svg_17" d="m667.97913,144.99383c-0.92328,-0.50564 -1.8465,-1.01129 -2.91895,-1.81323c1.43775,-0.1999 3.02466,-0.10353 4.64612,0.55069c-0.55267,0.79276 -1.13989,1.02765 -1.72717,1.26254z" fill="#48A6FF"/>
  <path id="svg_18" d="m555.96704,115.59345c-0.84344,0.14888 -1.79748,0.00971 -2.90027,-0.41057c0.83081,-0.14657 1.81024,-0.01204 2.90027,0.41057z" fill="#45A8FF"/>
  <path id="svg_19" d="m551.96704,114.59344c-0.84338,0.14888 -1.79742,0.00968 -2.90014,-0.41059c0.83068,-0.14655 1.81011,-0.01202 2.90014,0.41059z" fill="#45A8FF"/>
  <path id="svg_20" d="m559.96704,116.59345c-0.84344,0.1489 -1.79748,0.00973 -2.90027,-0.41056c0.83081,-0.14658 1.81024,-0.01205 2.90027,0.41056z" fill="#45A8FF"/>
  <path id="svg_21" d="m547.97852,113.60097c-0.85114,0.14558 -1.8161,0.00334 -2.9278,-0.42341c0.84021,-0.14448 1.82709,-0.00445 2.9278,0.42341z" fill="#45A8FF"/>
  <path id="svg_22" d="m567.96704,118.59345c-0.84338,0.14888 -1.79748,0.00969 -2.90021,-0.41059c0.83075,-0.14655 1.81018,-0.01202 2.90021,0.41059z" fill="#45A8FF"/>
  <path id="svg_23" d="m543.97852,112.60106c-0.85114,0.14558 -1.8161,0.00332 -2.9278,-0.42346c0.84021,-0.14449 1.82709,-0.00444 2.9278,0.42346z" fill="#45A8FF"/>
  <path id="svg_24" d="m639.96265,136.58835c-0.84223,0.14886 -1.79474,0.01117 -2.8927,-0.4108c0.83056,-0.1481 1.80645,-0.01193 2.8927,0.4108z" fill="#48A6FF"/>
  <path id="svg_25" d="m571.96704,119.59344c-0.84338,0.14886 -1.79742,0.00966 -2.90014,-0.41061c0.83068,-0.14652 1.81011,-0.01199 2.90014,0.41061z" fill="#45A8FF"/>
  <path id="svg_26" d="m575.96704,120.59344c-0.84338,0.14886 -1.79742,0.00966 -2.90014,-0.41061c0.83068,-0.14653 1.81011,-0.01199 2.90014,0.41061z" fill="#45A8FF"/>
  <path id="svg_27" d="m579.96704,121.59344c-0.84338,0.14888 -1.79748,0.00969 -2.90021,-0.41059c0.83075,-0.14656 1.81018,-0.01202 2.90021,0.41059z" fill="#45A8FF"/>
  <path id="svg_28" d="m583.96704,122.59344c-0.84338,0.14887 -1.79742,0.00966 -2.90014,-0.41061c0.83068,-0.14653 1.81011,-0.01199 2.90014,0.41061z" fill="#45A8FF"/>
  <path id="svg_29" d="m635.96265,135.58835c-0.84217,0.14886 -1.79468,0.01118 -2.89258,-0.41078c0.83044,-0.14812 1.80633,-0.01195 2.89258,0.41078z" fill="#48A6FF"/>
  <path id="svg_30" d="m563.96704,117.59344c-0.84338,0.14887 -1.79742,0.00967 -2.90014,-0.41061c0.83068,-0.14653 1.81011,-0.012 2.90014,0.41061z" fill="#45A8FF"/>
  <path id="svg_31" d="m643.96265,137.58835c-0.84217,0.14885 -1.79474,0.01115 -2.89264,-0.4108c0.8305,-0.14809 1.80639,-0.01193 2.89264,0.4108z" fill="#48A6FF"/>
  <path id="svg_32" d="m647.96265,138.58835c-0.84217,0.14886 -1.79468,0.01117 -2.89258,-0.4108c0.83044,-0.14809 1.80633,-0.01193 2.89258,0.4108z" fill="#48A6FF"/>
  <path id="svg_33" d="m651.96265,139.58835c-0.84217,0.14886 -1.79468,0.01117 -2.89258,-0.41078c0.83044,-0.14812 1.80633,-0.01197 2.89258,0.41078z" fill="#48A6FF"/>
  <path id="svg_34" d="m655.96265,140.58835c-0.84217,0.14886 -1.79474,0.01117 -2.89264,-0.4108c0.8305,-0.1481 1.80639,-0.01195 2.89264,0.4108z" fill="#48A6FF"/>
  <path id="svg_35" d="m659.96265,141.58835c-0.84217,0.14885 -1.79462,0.01115 -2.89258,-0.4108c0.83044,-0.1481 1.80633,-0.01193 2.89258,0.4108z" fill="#48A6FF"/>
  <path id="svg_36" d="m663.97217,142.59383c-0.84931,0.14572 -1.81183,0.00537 -2.91773,-0.4222c0.83918,-0.14609 1.82184,-0.00499 2.91773,0.4222z" fill="#48A6FF"/>
  <path id="svg_37" d="m668.14868,145.28969c0.41773,-0.53075 1.00495,-0.76564 1.69922,-1.31304c0.7406,-0.09044 1.37415,0.13163 2.13721,0.66614c-1.13599,0.52255 -2.40143,0.73265 -3.83643,0.6469z" fill="#18E2FF"/>
  <path id="svg_38" d="m631.92572,134.55927c-0.75964,0.26001 -1.66614,0.20469 -2.72046,-0.10758c0.75934,-0.24054 1.66644,-0.22414 2.72046,0.10758z" fill="#48A6FF"/>
  <path id="svg_39" d="m675.98425,145.642c-0.97003,0.70398 -2.07049,1.09454 -4.15088,1.8329c1.15271,-1.33026 1.54334,-1.78098 2.02784,-2.53366c0.72686,-0.07221 1.35974,0.15756 2.12304,0.70076z" fill="#18E2FF"/>
  <path id="svg_40" d="m679.98425,146.64197c-0.96808,0.70172 -2.06652,1.09001 -4.14612,1.82513c1.14777,-1.32313 1.53852,-1.77359 2.0232,-2.52594c0.72674,-0.07211 1.35962,0.15764 2.12292,0.70081z" fill="#18E2FF"/>
  <path id="svg_41" d="m474.65201,633.01239c-0.47232,0.92108 -1.25073,1.92865 -2.37763,2.9411c0.45819,-0.9483 1.26484,-1.90149 2.37763,-2.9411z" fill="#1ACCFF"/>
  <path id="svg_42" d="m266.42755,153.03702c0.08237,-0.68888 0.51334,-1.40349 1.29297,-2.05774c-0.08234,0.71759 -0.51337,1.3748 -1.29297,2.05774z" fill="#09F1FF"/>
  <path id="svg_43" d="m479.25964,629.88037c-0.44568,0.53711 -1.13098,0.79968 -2.0495,0.99658c0.44782,-0.46746 1.12888,-0.8692 2.0495,-0.99658z" fill="#7788FF"/>
  <path id="svg_44" d="m471.66956,635.99658c-0.25321,0.6875 -0.79117,1.44611 -1.51844,2.03314c0.28501,-0.76837 0.75934,-1.36529 1.51844,-2.03314z" fill="#1ACCFF"/>
  <path id="svg_45" d="m609.70837,191.86261c-0.17212,0.79709 -0.64306,1.76685 -1.41046,2.88013c0.17298,-0.80681 0.64234,-1.75713 1.41046,-2.88013z" fill="#21CBFF"/>
  <path id="svg_46" d="m586.83368,123.68988c-0.54065,0.09069 -1.06891,-0.10622 -1.75629,-0.54565c0.48346,-0.07565 1.12604,0.0912 1.75629,0.54565z" fill="#45A8FF"/>
  <path id="svg_47" d="m476.59894,631.01733c-0.1503,0.57459 -0.58097,1.24286 -1.34296,1.92713c0.13333,-0.60047 0.59796,-1.21704 1.34296,-1.92713z" fill="#1ACCFF"/>
  <path id="svg_48" d="m495.35657,603.55121c0.23517,0.47888 0.18286,0.86462 -0.12146,1.42926c-0.22336,-0.38825 -0.19467,-0.95532 0.12146,-1.42926z" fill="#20D9FF"/>
  <path id="svg_49" d="m50.8488,497.03122c2.77998,-15.36383 18.35191,-21.52039 30.55933,-21.83707c3.78919,-0.09826 7.62811,2.16095 11.46504,3.26892c1.80334,0.52076 3.72122,0.6919 5.4743,1.33109c5.89125,2.14813 11.78438,4.3081 17.57832,6.70187c7.19936,2.97446 14.33895,6.10178 21.43304,9.32025c6.58825,2.98899 13.03723,6.28547 19.63009,9.26377c8.25803,3.73053 16.66211,7.14053 24.88945,10.93539c8.84841,4.0813 17.50919,8.56958 26.35979,12.64594c5.5013,2.53375 11.2753,4.47235 16.79631,6.96716c6.72539,3.03888 13.24432,6.53571 19.97635,9.55878c11.99669,5.38733 24.15223,10.42322 36.11531,15.88214c8.86255,4.04413 17.43875,8.71576 26.30133,12.75989c9.21872,4.20666 18.65173,7.94152 27.93854,12.00268c2.49972,1.09314 4.80853,2.6228 7.64239,4.19464c-12.70019,16.39832 -20.73858,34.16284 -18.25747,56.06409c-7.73755,-3.26538 -14.72455,-6.09332 -21.60993,-9.15015c-8.73315,-3.87719 -17.38574,-7.93591 -26.06955,-11.92407c-10.35455,-4.75549 -20.65915,-9.62299 -31.07065,-14.25018c-10.58476,-4.70417 -21.32864,-9.05097 -31.90312,-13.77747c-15.15468,-6.7735 -30.15802,-13.88745 -45.34657,-20.58246c-7.94588,-3.5025 -16.26686,-6.15533 -24.20549,-9.67254c-9.35912,-4.14649 -18.40222,-9.0033 -27.73939,-13.20307c-10.46394,-4.70654 -21.02534,-9.2193 -31.68734,-13.4566c-12.5263,-4.97821 -22.52992,-13.02673 -29.98981,-24.10107c-2.00102,-2.97053 -2.67577,-6.83442 -4.0499,-11.07041c-0.13714,-3.14532 -0.18375,-5.50842 -0.23037,-7.87152z" fill="#000000"/>
  <path id="svg_50" d="m683.92767,251.52771c-10.66559,4.37611 -21.72857,7.20758 -32.25323,3.13602c-8.23987,-3.18764 -16.58173,-1.41071 -24.61133,-3.62076c-6.18091,-1.70122 -8.53339,-3.69992 -8.48315,-9.05635c0.01855,-1.97605 1.68408,-3.89111 2.35785,-5.91414c3.40234,-10.21462 9.84631,-18.04595 18.16632,-24.7533c11.81256,-9.52295 25.53198,-14.30883 39.69073,-19.18849c10.69995,-3.68765 19.69507,-0.85652 28.82355,2.12236c7.66302,2.50066 13.62207,10.77001 10.1499,24.41287c-1.68817,6.63332 -4.6568,13.07228 -7.94458,19.10981c-1.57104,2.88498 -5.00049,5.03015 -8.00574,6.80252c-5.4483,3.21328 -10.74066,7.15193 -17.89032,6.94946z" fill="#000000"/>
  <path id="svg_51" d="m534.02722,512.1206c0.07959,-0.35726 0.16205,-1.02798 0.23853,-1.02728c9.36981,0.08332 18.73925,0.21613 27.96557,0.6409c-0.63733,0.29758 -1.13159,0.30069 -2.45514,0.28946c-9.13586,0.02271 -17.44244,0.05982 -25.74896,0.09692z" fill="#55AAFF"/>
  <path id="svg_52" d="m534.01739,512.31274c8.31635,-0.22924 16.62293,-0.26635 25.38898,-0.26855c-3.02563,0.34198 -6.50574,0.80865 -9.99713,0.91748c-4.81122,0.15009 -9.63092,0.02991 -14.91376,-0.02344c-0.46673,-0.04901 -0.48791,-0.43329 -0.47809,-0.62549z" fill="#000000"/>
  <path id="svg_53" d="m50.60103,497.30243c0.29439,2.09189 0.341,4.45499 0.31325,7.25568c-0.23658,-2.03644 -0.3988,-4.51047 -0.31325,-7.25568z" fill="#4396FF"/>
  <path id="svg_54" d="m580.41821,427.56387c-0.46112,-0.19464 -1.29516,-0.34893 -1.32129,-0.59066c-0.14221,-1.31446 -0.07061,-2.65073 -0.09912,-3.97895c-0.32983,-15.36648 -0.6698,-30.73276 -0.99163,-46.09939c-0.0445,-2.12281 -0.00617,-4.24729 -0.00617,-6.371c0.67419,-0.00327 1.34845,-0.00654 2.02264,-0.0098c0,18.76806 0,37.5361 0.17389,56.7034c0.17395,0.39926 0.22168,0.3464 0.22168,0.3464z" fill="#000000"/>
  <path id="svg_55" d="m580.34607,427.64258c0.20099,0.79028 0.60998,1.55121 0.62494,2.31976c0.35431,18.1825 0.66626,36.36579 0.76935,55.04004c-0.21649,0.49109 -0.18634,0.45392 -0.18836,0.46881c-0.18262,-0.6131 -0.51037,-1.23825 -0.52246,-1.86941c-0.3504,-18.3403 -0.66937,-36.68122 -0.80237,-55.52994c0.19104,-0.50797 0.14331,-0.45511 0.1189,-0.42926z" fill="#000000"/>
  <path id="svg_56" d="m477,444.83758c0,-4.09631 0,-7.7156 0,-11.33492c0.24637,0.00064 0.49271,0.00128 0.73908,0.00192c0.50244,9.92114 1.00488,19.84231 1.50732,29.76349c-0.25873,0.01721 -0.51746,0.03445 -0.77619,0.05166c-0.49008,-6.00171 -0.98013,-12.00342 -1.47021,-18.48215z" fill="#000000"/>
  <path id="svg_57" d="m597.81702,311c-6.75183,0 -13.02759,0 -19.30335,0c0.00147,-0.24109 0.00299,-0.48215 0.00446,-0.72324c8.32605,0 16.6521,0 24.97815,0c0.00335,0.24109 0.00665,0.48215 0.01001,0.72324c-1.73774,0 -3.47547,0 -5.68927,0z" fill="#000000"/>
  <path id="svg_58" d="m437,395.99588c9.09854,0 17.69705,0 26.29559,0c-0.00015,0.22852 -0.00027,0.45706 -0.00039,0.68558c-17.18738,0 -34.37476,0 -51.56211,0c-0.00619,-0.22852 -0.01236,-0.45706 -0.01852,-0.68558c8.26181,0 16.52362,0 25.28543,0z" fill="#000000"/>
 </g>
</svg>