<svg width="227.9" height="275.79" xmlns="http://www.w3.org/2000/svg" xml:space="preserve" version="1.1">
 <defs>
  <linearGradient y2="0.99998" x2="4.4698" y1="-0.00007" x1="4.4698" id="SVGID_1_">
   <stop stop-color="#FFFFFF" offset="0"/>
   <stop stop-color="#999999" offset="1"/>
  </linearGradient>
 </defs>
 <g>
  <title>Layer 1</title>
  <g id="Layer_1"/>
  <g id="Layer_2">
   <g id="_x23_6ab651ff">
    <path id="svg_1" fill="#6AB651" d="m89.62,0l0.54,0c4.81,3.58 10.68,5.24 16.02,7.83c12.19,5.66 24.59,10.88 36.68,16.78c-19.54,-2.46 -40.01,-0.84 -58,7.56c-3.91,1.83 -7.28,5.04 -11.76,5.4c4.63,-12.85 11.27,-24.95 16.52,-37.57z" class="st0"/>
    <path id="svg_2" fill="#6AB651" d="m199.98,55.93c4.18,1.26 8.36,2.46 12.58,3.55c-2.54,9.69 -6.03,19.14 -8.41,28.88c-7.08,-3.07 -14.37,-5.65 -21.54,-8.54c5.71,-8.01 13.75,-14.54 17.37,-23.89z" class="st0"/>
   </g>
   <g id="_x23_c67227ff">
    <path id="svg_3" fill="#C67227" d="m62.54,41.19c2.99,-0.94 5.95,-2.33 9.12,-2.35c-2.03,3.34 -5.25,5.58 -7.94,8.34c-10.25,10.24 -16.29,24.2 -17.5,38.58c-0.38,4.71 -1.62,9.33 -4.11,13.38c-5.65,-15.08 -9.83,-30.65 -15.41,-45.76c11.76,-4.63 23.97,-7.93 35.84,-12.19z" class="st1"/>
   </g>
   <g id="_x23_4285a7fd">
    <path id="svg_4" fill="#4285A7" d="m171.9,91.11c4.62,-2.63 7.46,-7.25 10.72,-11.28c7.17,2.89 14.45,5.47 21.54,8.54c4.79,1.97 9.66,3.73 14.48,5.61c-4.01,10.35 -7.7,20.87 -12.15,31.06c-3.88,6.9 -6.59,14.35 -10.07,21.44c-9.64,-13.21 -23.93,-22.03 -39.14,-27.51c5.09,-9.16 9.3,-18.81 14.62,-27.86z" class="st2"/>
   </g>
   <g id="_x23_dd3a2eff">
    <path id="svg_5" fill="#DD3A2E" d="m42.11,99.14c2.49,-4.05 3.73,-8.67 4.11,-13.38c-1.22,13.99 1.49,28.59 9.28,40.41c8.08,13.1 21.47,22.11 35.52,27.76c-8.93,10.27 -17.08,21.35 -27.41,30.32c-6.85,7.99 -13.38,16.28 -20.28,24.23c-11.13,-4.54 -22.2,-9.26 -33.43,-13.53c-3.1,-2.06 -6.69,-3.32 -9.91,-5.19l0,-0.81c2.44,-3.04 3.77,-6.74 5.38,-10.22c9.51,-20.66 19.44,-41.1 28.95,-61.75c2.69,-5.9 5.93,-11.6 7.79,-17.84z" class="st3"/>
   </g>
   <g id="_x23_432c8cff">
    <path id="svg_6" fill="#432C8C" d="m196.41,146.48c3.48,-7.08 6.19,-14.53 10.07,-21.44c7.42,31.87 13.74,64.01 21.17,95.87c-5.02,1.34 -10.11,2.46 -15.23,3.3c0.18,-1.16 0.56,-3.5 0.76,-4.67c-5.14,-1.37 -10.31,-2.59 -15.52,-3.62c11.43,-21.21 11.37,-48.76 -1.25,-69.44z" class="st4"/>
   </g>
   <g id="_x23_c02d5bff">
    <path id="svg_7" fill="#C02D5B" d="m9.91,194.95c11.23,4.26 22.29,8.98 33.43,13.53c-1.95,2.46 -4.57,4.72 -5.2,7.91c-1.72,8.13 7.89,11.05 12.55,15.66c-14.95,-1.02 -29.84,-2.68 -44.77,-3.96c1.68,-11.02 1.63,-22.25 3.99,-33.14z" class="st5"/>
    <path id="svg_8" fill="#C02D5B" d="m74.41,244.86c15.49,5.91 31.97,8.77 48.52,9c1.14,0.5 3.44,1.49 4.57,2l0.02,0.38c-5.78,6.04 -11.59,12.34 -15.79,19.55l-0.58,0c-11.77,-10.81 -24.42,-20.72 -36.74,-30.93z" class="st5"/>
   </g>
   <g id="_x23_6b2e86ff">
    <path id="svg_9" fill="#6B2E86" d="m161.79,246.18c14.6,-6.09 28.19,-16.15 35.87,-30.25c5.22,1.02 10.39,2.25 15.52,3.62c-0.2,1.17 -0.58,3.52 -0.76,4.67c-2.86,15.31 -5.86,30.59 -8.64,45.91c-25.45,-4.41 -50.73,-10.09 -76.26,-13.89l-0.02,-0.38c-1.14,-0.51 -3.44,-1.5 -4.57,-2c13.18,-0.86 26.63,-2.33 38.86,-7.68z" class="st6"/>
   </g>
  </g>
  <g id="Layer_3">
   <g id="svg_10">
    <g id="svg_11">
     <path id="svg_12" fill="url(#SVGID_1_)" d="m120.55,248.79c-13.95,0 -27.85,-2.56 -41.69,-7.68c-13.85,-5.12 -26.22,-12.8 -37.11,-23.05l27.47,-33.03c7.63,6.54 16.07,11.88 25.34,16.02c9.26,4.14 18.36,6.21 27.3,6.21c10.02,0 17.49,-1.85 22.4,-5.56c4.9,-3.7 7.36,-8.72 7.36,-15.04c0,-3.27 -0.71,-6.1 -2.13,-8.5c-1.42,-2.4 -3.49,-4.52 -6.21,-6.38c-2.73,-1.85 -6,-3.6 -9.81,-5.23c-3.82,-1.64 -8.01,-3.43 -12.59,-5.4l-27.79,-11.77c-5.45,-2.18 -10.74,-5.01 -15.86,-8.5c-5.12,-3.48 -9.7,-7.57 -13.73,-12.26c-4.04,-4.69 -7.25,-10.14 -9.65,-16.35c-2.4,-6.21 -3.6,-13.24 -3.6,-21.09c0,-8.72 1.85,-16.95 5.56,-24.69c3.7,-7.74 8.94,-14.5 15.7,-20.27c6.75,-5.77 14.77,-10.3 24.03,-13.57c9.26,-3.27 19.46,-4.9 30.57,-4.9c12.43,0 24.69,2.4 36.79,7.19c12.1,4.8 22.73,11.77 31.88,20.93l-24.52,30.41c-6.98,-5.45 -13.95,-9.65 -20.93,-12.59c-6.98,-2.94 -14.71,-4.41 -23.22,-4.41c-8.29,0 -14.88,1.69 -19.78,5.07c-4.9,3.38 -7.36,8.12 -7.36,14.22c0,3.27 0.82,6.05 2.45,8.34c1.63,2.29 3.92,4.36 6.87,6.21c2.94,1.85 6.38,3.6 10.3,5.23c3.92,1.63 8.17,3.43 12.75,5.4l27.47,11.12c13.08,5.23 23.38,12.43 30.9,21.58c7.52,9.16 11.28,21.25 11.28,36.3c0,8.94 -1.8,17.39 -5.4,25.34c-3.6,7.96 -8.83,14.93 -15.7,20.93c-6.87,6 -15.32,10.79 -25.34,14.39c-10.02,3.58 -21.36,5.38 -34,5.38z" class="st7"/>
    </g>
   </g>
  </g>
 </g>
</svg>